<svg id="Layer_1" data-name="Layer 1" xmlns="http://www.w3.org/2000/svg" viewBox="0 0 80.05 71.65"><defs><style>.cls-1{fill:#ff6b06;}.cls-2{font-size:18.76px;font-family:PillGothic600mg-Light, "Pill Gothic 600mg Light";font-weight:300;}.cls-3{fill:#16b209;}.cls-4{fill:#fff;}.cls-5{fill:#070501;}</style></defs><title>ne-developers</title><path class="cls-1" d="M18.77,57.64h2.61V8.76s-.16-1.2.67,0L51.76,57.64h19.3l.21-49.17L97.4,8.36V4.46H68.67l-.25,48.78v.3c0,.12.63,1.53-.25-.24L38.45,4.46H18.77Z" transform="translate(-18.06 -4.46)"/><text class="cls-2" transform="translate(0 67.15) scale(0.83 1)"><tspan xml:space="preserve">devel     pers</tspan></text><path class="cls-3" d="M59.38,60.17s.66-1.45,1.45-1.74a1.65,1.65,0,0,1,1.91,1.08,1.86,1.86,0,0,0,1.95,1.32s1.17-.71,1.75-.37c0,0,1.35.48,1.11,1.7,0,0-.66,1.69-.21,2.11a3.35,3.35,0,0,0,1.08,1,1.51,1.51,0,0,1,1.11,1.49,1.83,1.83,0,0,1-1.19,1.53s-1.56.4-1,2.43c0,0,.55,2.85-1.35,2.28a14.05,14.05,0,0,0-1.85-.35s-.58-.29-1.69,1.67c0,0-1,1.64-2.67,0a2.16,2.16,0,0,0-1.41-1.69s-.66.08-1.21.18c0,0-1.88.93-2.31-1.53,0,0,.93-1.46,0-2.51a3.57,3.57,0,0,0-1.25-.65,1.74,1.74,0,0,1-.12-2.62s1.2-.49,1.48-1c0,0,.53-.2.16-1.66,0,0-.73-.84.37-2.12a1.64,1.64,0,0,1,1.75-.08A2,2,0,0,0,59.38,60.17Z" transform="translate(-18.06 -4.46)"/><circle class="cls-4" cx="43.2" cy="62.23" r="3.09"/><polygon class="cls-5" points="6.22 53.23 4.84 53.23 4.84 8.78 6.13 10.92 6.22 53.23"/><polygon class="cls-5" points="46.28 0 47.2 0.01 46.72 40.24 45.78 38.7 46.28 0"/><polygon class="cls-5" points="8 53.26 7.08 53.26 7.08 12.95 7.94 14.33 8 53.26"/><polygon class="cls-5" points="48.04 0 49.41 0.01 49.04 44 47.84 42.08 48.04 0"/><path class="cls-3" d="M59.63,29.39s17.62-4.08,38.19,4.34c0,0-.85-4.37-18.91-7.56C78.91,26.17,64.73,24.37,59.63,29.39Z" transform="translate(-18.06 -4.46)"/><rect class="cls-1" x="50.36" y="49.32" width="28.73" height="3.86"/><rect class="cls-5" x="83.7" y="-3.07" width="1.66" height="25.75" transform="translate(76.28 -79.18) rotate(90)"/><rect class="cls-5" x="83.57" y="39.45" width="1.66" height="25.5" transform="translate(118.54 -36.66) rotate(90)"/><rect class="cls-5" x="84.03" y="-1.2" width="1" height="25.75" transform="translate(78.14 -77.31) rotate(90)"/><rect class="cls-5" x="83.9" y="37.6" width="1" height="25.5" transform="translate(116.69 -38.51) rotate(90)"/></svg>