<svg id="Layer_1" data-name="Layer 1" xmlns="http://www.w3.org/2000/svg" viewBox="0 0 1505.19 1505.19"><defs><style>.cls-1{fill:#fff;}.cls-2{fill:#9daad3;}.cls-3{fill:#b2e2f9;}.cls-4{fill:#561136;}.cls-5{fill:#151f34;}.cls-6{fill:#e69376;}.cls-7{fill:#1a2652;}.cls-8{fill:#f6a382;}.cls-9{fill:#e0856e;}.cls-10{fill:#1e2732;}.cls-11{fill:#6651a1;}.cls-12{fill:#161f29;}.cls-13{fill:#2c3c70;}.cls-14{fill:#f79f7d;}.cls-15{fill:#e98a6f;}.cls-16{fill:#3b2314;}.cls-17{isolation:isolate;}.cls-18{fill:#0092c5;}.cls-19{fill:#3daee3;}.cls-20{fill:#80bae5;}.cls-21{fill:#7c284b;}.cls-22{fill:#a0426e;}.cls-23{fill:#cb4e7e;}.cls-24{fill:#17181c;}.cls-25{fill:#104473;}.cls-26{fill:#065098;}.cls-27{fill:#862952;}.cls-28{fill:#260f00;}.cls-29{fill:#394572;}.cls-30{fill:#424887;}.cls-31{fill:#5760aa;}.cls-32{fill:#6174b7;}.cls-33{fill:#053b6b;}.cls-34{fill:#007fa2;}.cls-35{fill:#030308;}.cls-36{fill:#30528a;}.cls-37{fill:#ffd37c;}.cls-38{fill:#3f1900;}.cls-39{fill:#004e88;}.cls-40{fill:#0061a2;}.cls-41{fill:#196eaa;}.cls-42{fill:#4f1531;}.cls-43{fill:#00468a;}.cls-44{fill:#0058a8;}.cls-45{fill:#340e07;}.cls-46{fill:#f3b68e;}.cls-47{fill:#f7b68d;}.cls-48{fill:#dc9d7e;}.cls-49{fill:#e6e7e8;}.cls-50{fill:#7ec68c;}.cls-51{fill:#f28cb5;}.cls-52{fill:#97c3e8;}.cls-53{fill:#a3ddf5;}.cls-54,.cls-55{fill:none;stroke:#699ed4;stroke-miterlimit:10;}.cls-54{stroke-width:12.47px;}.cls-55{stroke-width:13.46px;}</style></defs><title>about-team</title><rect class="cls-1" width="1505.19" height="1505.19"/><path class="cls-2" d="M662.45,866.36l-209.14-88L290.15,888.45l86.63,36.45a38.1,38.1,0,0,1-5.84,3.81,48.32,48.32,0,0,1-10.69,3.11c-7.28,1.34-16.23,1.12-21.42,4.62-8.11,5.48-1.72,15.42,14.25,22.54l1.41.62c17,7.15,37.56,8.39,45.91,2.75,6.78-4.58,1.56-11.85,5.61-17.17a41.17,41.17,0,0,1,6.77-5.14l86.51,36.41L566.8,930.9l-.87-.39a80.1,80.1,0,0,0-8.88-3.26c-10.07-2.21-23.68.47-32.38-3.19-10.66-4.74-8.48-15.51,4.63-24.36,13.26-8.94,32.69-12.55,43.4-8.05,6.64,3,6.38,7.62,9,11.45a19.84,19.84,0,0,0,6,5.72c.32.19,1.53.79,3.05,1.48,1.28.57,2.79,1.19,4.19,1.66Z" transform="translate(211.35 0.69)"/><path class="cls-2" d="M440.46,1175.35c-5.27-3.56-14.37-3.34-21.77-4.7a48.56,48.56,0,0,1-10.87-3.17,38.22,38.22,0,0,1-5.93-3.86l88-37-68.6-46.29.88-.41a82.09,82.09,0,0,1,9-3.31c10.22-2.25,24.06.48,33.26-3.39,10.48-4.68,8.27-15.62-5.07-24.61s-33.22-12.76-44.43-8c-6.42,2.87-6.16,7.6-8.78,11.48a20,20,0,0,1-6.09,5.82c-.32.2-1.56.82-3.12,1.52-1.29.58-2.81,1.2-4.22,1.68l-68.69-46.35-212.57,89.45L277.36,1216l87.95-37a43.15,43.15,0,0,1,6.87,5.22c4.11,5.41-1.19,12.8,5.7,17.45,8.49,5.73,29.38,4.47,46.66-2.8.49-.2,1-.41,1.43-.62C442.21,1191,448.71,1180.92,440.46,1175.35Z" transform="translate(211.35 0.69)"/><path class="cls-2" d="M604.89,966.7l87.93-37a41.37,41.37,0,0,1,6.88,5.22c4.11,5.41-1.19,12.79,5.71,17.45,8.49,5.72,29.38,4.47,46.66-2.8l1.42-.61c16.24-7.24,22.75-17.35,14.49-22.93-5.27-3.55-14.37-3.33-21.77-4.7a48.19,48.19,0,0,1-10.87-3.16,39,39,0,0,1-5.93-3.87l88.05-37,165.83,111.9-212.57,89.45-68.61-46.3.85-.39a81.83,81.83,0,0,1,9.06-3.32c10.23-2.25,24.07.48,32.91-3.24,10.83-4.83,8.62-15.76-4.71-24.76-13.48-9.1-33.23-12.76-44.11-8.18-6.75,3-6.49,7.74-9.1,11.62a20.08,20.08,0,0,1-6.09,5.82c-.32.19-1.56.82-3.13,1.51-1.29.58-2.81,1.21-4.22,1.68Z" transform="translate(211.35 0.69)"/><path class="cls-2" d="M888.16,1209.72l-86.53-36.41a42,42,0,0,0-6.76,5.13c-4,5.33,1.17,12.6-5.61,17.17-8.35,5.64-28.9,4.41-45.9-2.75l-1.42-.61c-16-7.12-22.36-17.07-14.25-22.54,5.19-3.51,14.14-3.28,21.42-4.63A47.12,47.12,0,0,0,759.8,1162a37.88,37.88,0,0,0,5.83-3.8L679,1121.71l-67.57,45.6c-1.4-.47-2.91-1.09-4.18-1.66-1.53-.68-2.73-1.29-3-1.48a19.77,19.77,0,0,1-6-5.72c-2.58-3.82-2.32-8.48-8.63-11.3-11-4.64-30.46-1-43.73,7.91-13.11,8.85-15.28,19.61-5,24.21,9,3.81,22.66,1.12,32.73,3.34a78.06,78.06,0,0,1,8.88,3.25l.87.4-67.5,45.54,209.14,88Z" transform="translate(211.35 0.69)"/><path class="cls-3" d="M213,5.37c-16.84,53.2-46.61,101.88-82,144.71-32.8,39.67-70.15,75-114.15,102-68.9,42.25-147.95,64.47-228.14,71.21V-.69H214.82C214.22,1.33,213.61,3.35,213,5.37Z" transform="translate(211.35 0.69)"/><path class="cls-3" d="M1041.62,1447.58c15.32-50.58,40.25-97.86,74.45-138.24,18.6-22,40.85-41.42,63.26-59.38a765.78,765.78,0,0,1,72.4-51.23c11.34-7.11,22.45-13.27,35-18,2.37-.91,4.74-1.77,7.12-2.62V1504.5H1028.41A459.91,459.91,0,0,1,1041.62,1447.58Z" transform="translate(211.35 0.69)"/><path class="cls-2" d="M396.15,849.75c0,29.35-53.48,53.15-119.46,53.15s-119.46-23.8-119.46-53.15,53.49-53.15,119.46-53.15S396.15,820.39,396.15,849.75Z" transform="translate(211.35 0.69)"/><polygon class="cls-4" points="520.2 846.88 522.16 846.52 524.12 830.07 518.98 823.97 520.2 846.88"/><polygon class="cls-5" points="517.84 845.54 520.2 846.88 519.83 819.96 515.68 819.01 517.84 845.54"/><path class="cls-6" d="M324.6,811,329,825.4s5.95,13.91,10.85,19.39c0,0,8.86,12.14-7.71,11.33,0,0-17.67-.94-17.4-12.27C314.94,834.1,306,822,306,822a9.89,9.89,0,0,1,1.15-11.64l3.07-3.5,14.86-2.6Z" transform="translate(211.35 0.69)"/><path class="cls-5" d="M340.78,849.27a22.28,22.28,0,0,1-19.24-5.82c-4.6-4.53-9.84-21.09-8.1-15.59.72,2.28-4.68-17.85-3.24-21l-3.07,3.5c-1.11,1.31-4.75,6.24-1.45,11.95,0,0,9.26,11.79,9,21.54-.27,11.33,17.4,12.27,17.4,12.27,9.94.49,10.73-3.69,9.76-7.11A10.88,10.88,0,0,1,340.78,849.27Z" transform="translate(211.35 0.69)"/><path class="cls-5" d="M349.11,854.11s2.49,4.72-5.42,4.72c0,0-29.65-1.89-29.64-14.62V834s2.33,14.64,20.64,14.68c0,0,8.13,0,3.93-5.18Z" transform="translate(211.35 0.69)"/><path class="cls-7" d="M301.38,167.72A19.73,19.73,0,1,1,281.66,148,19.73,19.73,0,0,1,301.38,167.72Z" transform="translate(211.35 0.69)"/><path class="cls-8" d="M295.8,258.65h38.86c-1.77-5.66-5.43-20.3.24-30.27L295.64,202.6S302.62,245.86,295.8,258.65Z" transform="translate(211.35 0.69)"/><path class="cls-9" d="M300.16,234.24c2.32,5.95,6.09,8.85,12.23,10.79a41.09,41.09,0,0,0,19.73,1.46c-.61-6-.29-12.72,2.78-18.11L295.64,202.6s2.12,13.2,2.88,27.16C299.05,231.26,299.57,232.75,300.16,234.24Z" transform="translate(211.35 0.69)"/><path class="cls-8" d="M342.37,237.38l2.06-5.84,5-17.2c.69-2.73,1-6.46.08-9.12a27.79,27.79,0,0,1-.8-14.28c3.2-15.65-3.74-23.81-3.74-23.81-9.13-14.39-30.69-14.32-30.69-14.32C287.68,154.19,285.5,180,285.5,180c-4.28,17.16,9.41,31.42,9.43,31.44,1.74,1.8,1.92,4.73,2.76,7a21.33,21.33,0,0,0,3.91,6.52,47.81,47.81,0,0,0,13.66,11c4.76,2.42,14,4.91,20.54,4.84C338.52,240.7,341.19,240.74,342.37,237.38Z" transform="translate(211.35 0.69)"/><polygon class="cls-4" points="429.34 849.97 431.31 850.25 438.45 835.3 435.53 827.88 429.34 849.97"/><polygon class="cls-5" points="427.54 847.95 429.34 849.97 437.63 824.35 434 822.12 427.54 847.95"/><path class="cls-8" d="M244.2,821c-.39,12-1.28,25.53,3.57,36.92,0,0,4.49,14.34-10.94,8.26,0,0-16.43-6.56-12.54-17.21,3.34-9.16-1.26-23.49-1.26-23.49a9.85,9.85,0,0,1,4.83-10.65l4-2.34h15.45Z" transform="translate(211.35 0.69)"/><path class="cls-5" d="M247.25,862.44a22.23,22.23,0,0,1-16.36-11.69c-2.9-5.76-2.56-23.13-2.67-17.36-.05,2.39,1.29-18.41,3.66-20.93l-4,2.34c-1.48.87-6.51,4.38-5.21,10.84,0,0,5,14.14,1.64,23.3-3.89,10.65,12.54,17.21,12.54,17.21,9.27,3.65,11.35-.06,11.53-3.61A8.63,8.63,0,0,1,247.25,862.44Z" transform="translate(211.35 0.69)"/><path class="cls-5" d="M253.58,869.7s.85,5.26-6.65,2.73c0,0-27.48-11.3-23.38-23.36l3.28-9.72s-2.49,14.62,14.84,20.52c0,0,7.7,2.61,5.39-3.64Z" transform="translate(211.35 0.69)"/><path class="cls-8" d="M261.27,641.18c-19.71,36.38-23.19,51.19-26.7,78.86-2,16.09-1.36,83.88-3.47,94-.88,4.19,15.05,1.89,15.05,1.89,2.91-7.09,49.3-162.83,49.3-162.83s5.19-16.13.88-18.94C274.7,620.06,269.86,625.32,261.27,641.18Z" transform="translate(211.35 0.69)"/><path class="cls-10" d="M246.63,819.17c2.91-7.09,48.82-166.08,48.82-166.08s5.19-16.13.88-18.94c-21.63-14.09-26.47-8.83-35.06,7-19.71,36.38-23.19,51.19-26.7,78.86-2,16.09-5.36,81.54-7.47,91.65C227.1,811.69,238.88,825.74,246.63,819.17Z" transform="translate(211.35 0.69)"/><path class="cls-10" d="M349.72,378s15.15,64.1,13.11,71.1c-5.85,20.16-60.18,48.47-109.72,7.2,0,0,11.32-47.41,34.84-87.51C288,368.83,296.59,377.76,349.72,378Z" transform="translate(211.35 0.69)"/><path class="cls-11" d="M342,247.8s19.82,38.32,28.67,59.34c-3.71,24.64-17.09,61.19-22.48,68.9-11.79,16.9-65.7,1.81-65.7,1.81L267,326c45.35-16.29,21.47-64.08,21.47-64.08l7.11-4.49s7.25,23.49,36.77,22.65c0,0,9.7-6.31,2.57-33.11A41.41,41.41,0,0,1,342,247.8Z" transform="translate(211.35 0.69)"/><path class="cls-6" d="M292.67,466.4s5.21,103.4,24.34,159c2.85,8.29,35.54-2.73,35.54-2.73s16.5-89,15.51-125.83c-.56-20.83-8-65.75-8-65.75S298.74,423.08,292.67,466.4Z" transform="translate(211.35 0.69)"/><path class="cls-6" d="M318,625l34.6-2.36s-21.26,176.51-23.19,183.93c0,0-14.87,5.38-14.57,1.11.72-10.31-11.69-89.52-12.06-105.74C302.12,675.93,303.14,659.47,318,625Z" transform="translate(211.35 0.69)"/><path class="cls-12" d="M292.67,466.4s5.21,103.4,24.34,159c2.85,8.29,35.54-2.73,35.54-2.73s16.5-89,15.51-125.83c-.56-20.83-8-65.75-8-65.75S298.74,423.08,292.67,466.4Z" transform="translate(211.35 0.69)"/><path class="cls-12" d="M333.65,807.72c3.51-6.82,18.9-185,18.9-185L318,625c-14.81,34.43-15.83,50.89-15.22,76.94.37,16.22,8.23,95.43,7.5,105.74C310.23,807.72,329,816.67,333.65,807.72Z" transform="translate(211.35 0.69)"/><path class="cls-6" d="M404.59,373.33l-26.23-95.1c-9.44-25.44-23.53-26.06-23.53-26.06-27,4.09-9.72,51.48-9.72,51.48l33.34,79" transform="translate(211.35 0.69)"/><path class="cls-6" d="M480.61,444.37c-11.34-8.41-12.13-10.69-13.84-14.12-7.39-14.68,11.47-11.46,16.07-9.68,2.64,1,1.85,7.56,9.16,16.74,0,0,12.18,9.71,15.54,9.65,0,0,3.35,1,3,3.46C510.53,450.42,500.35,454.57,480.61,444.37Z" transform="translate(211.35 0.69)"/><path class="cls-6" d="M387.48,362.35" transform="translate(211.35 0.69)"/><path class="cls-6" d="M402.56,367.8l76.82,58.11c2.12,10.59-2.74,11.35-2.74,11.35l-62-28.19c-26.52-11.48-35.76-24.7-35.76-24.7s-10.84-10.15,6.42-20.34C385.34,364,393.18,359.52,402.56,367.8Z" transform="translate(211.35 0.69)"/><path class="cls-6" d="M480.66,419.91s-3.36,6.51,5.42,6.09l9.29-5.13s2.8-1,2.24-3.61c0,0-.79-1.57-3.66-.56Z" transform="translate(211.35 0.69)"/><path class="cls-8" d="M250.35,475s.4,103.44,14,160.65c2,8.53,33.19,5.91,33.19,5.91s20.34-97.82,22.93-134.6c1.47-20.79,5.62-57.17,5.62-57.17S253.19,442.6,250.35,475Z" transform="translate(211.35 0.69)"/><path class="cls-8" d="M265.45,274.33c-15.91,11.63-7.78,29.11-7.78,29.11l30,72.93s48.7,16.57,60.49-.33c5.39-7.71,10.37-28.15,16.9-57.64,4.45-20,4.75-55-6.53-65.41-6.51-6-27.56-5.86-27.72-6.57l-34.11,11Z" transform="translate(211.35 0.69)"/><path class="cls-8" d="M329.74,370.42c2.88-.53,18.45,5.62,18.45,5.62s11.21,47.8,11.86,55.06S310.7,476,254.88,454.57c0,0,28.19-66.5,32.31-80.4C291.92,358.2,329.74,370.42,329.74,370.42Z" transform="translate(211.35 0.69)"/><path class="cls-11" d="M356.85,277.37s16.48,19.4,17.86,33.82c.77,8-9.36,21.46-14.43,26.41C356.68,341.11,335.4,290.76,356.85,277.37Z" transform="translate(211.35 0.69)"/><path class="cls-10" d="M268.55,438.72s-19.68,4.38-17.91,40.46c1.74,35.24,65.89,42.56,74.13,7.06C333.63,448,303.59,425.63,268.55,438.72Z" transform="translate(211.35 0.69)"/><path class="cls-13" d="M297.91,221.39c-.13-12.17.18-11.42.18-11.42.28-3.56,7.26,4.11,7.11-.53-.66-21.19,7-31.29,10.06-32.92,8.18-4.43,16.81-5.7,23.65-4.49,10.72,1.91,10.31,16.18,10.31,16.18,9.14-52.25-49.14-35.55-49.14-35.55-28.38,7.45-25.45,34.19-25.45,34.19-3.48,28.72,23.73,45.32,23.73,45.32Z" transform="translate(211.35 0.69)"/><path class="cls-14" d="M299.78,217.25a5.71,5.71,0,0,1-3.7,1.12c-4.13-.05-7.55-3.92-7.65-8.61s3.16-8.45,7.29-8.39a7.21,7.21,0,0,1,5.11,2.33c2,2.07,2,5.9,1.57,8.53A7.89,7.89,0,0,1,299.78,217.25Z" transform="translate(211.35 0.69)"/><path class="cls-15" d="M297.38,205.74c-.24-2.47-5.23-.11-4.47,1.28a7.54,7.54,0,0,0,2,1.94,3.62,3.62,0,0,1,1.53,2.7c0,.14,0,.56-.1.66-.65.45-2.76-1.95-3.22-2.46a4.14,4.14,0,0,1-.6-4,2.46,2.46,0,0,1,2.73-1.84c1.12.06,2.26.14,2.2,1.53,0,0-.05.26-.07.14Z" transform="translate(211.35 0.69)"/><path class="cls-15" d="M295.79,208.3c.52-.52,1-.09,1.54.29a2.38,2.38,0,0,1,.9,1.45,5.84,5.84,0,0,1-.62,4.12,3.13,3.13,0,0,1-2.68,1.42c-1.5,0-1.95-1.37-2-2.64,0-.34,0-1.14.29-1.35s.62.33.86.57a2.14,2.14,0,0,0,1.27.48,2.72,2.72,0,0,0,2.23-1,1.08,1.08,0,0,0,.23-.38c0,.83,0,1-.13.55a2.83,2.83,0,0,0-.28-.58c-.35-.58-.94-1-1.33-1.52-.18-.26-.53-1.15-.27-1.41Z" transform="translate(211.35 0.69)"/><path class="cls-16" d="M323.42,199.1c.14,1.47-.56,2.75-1.56,2.85s-1.93-1-2.07-2.5.55-2.75,1.56-2.85S323.27,197.62,323.42,199.1Z" transform="translate(211.35 0.69)"/><path class="cls-16" d="M343.92,196.33c.05,1.49-.72,2.72-1.72,2.75s-1.87-1.13-1.92-2.61.71-2.72,1.72-2.75S343.86,194.85,343.92,196.33Z" transform="translate(211.35 0.69)"/><path class="cls-13" d="M314.59,197.11c3.85-4.05,12.91-3.73,12.91-3.73s.6,0,.44-1.88c0,0,0-1.63-1.35-1.47C326.59,190,315.06,189.27,314.59,197.11Z" transform="translate(211.35 0.69)"/><path class="cls-13" d="M349.12,189.36c-4-3.25-11.42-.71-11.42-.71-1.3.19-.92,1.77-.92,1.77.33,1.83.92,1.7.92,1.7s6.12-1.89,10.91-.78C348.79,190.69,349,190,349.12,189.36Z" transform="translate(211.35 0.69)"/><path class="cls-1" d="M341.33,217.82l-14.6,2.7c-.77.14-1.07.6-.66,1,0,0,4.2,4.2,8.93,3.31s7.1-6.32,7.1-6.32C342.3,218.05,342,217.78,341.33,217.82Z" transform="translate(211.35 0.69)"/><path class="cls-15" d="M330.84,213.22c7.65-.55,8.07-2.56,8.07-2.56l-4-8.06S335.82,210.66,330.84,213.22Z" transform="translate(211.35 0.69)"/><path class="cls-10" d="M250.35,475s.4,103.44,14,160.65c2,8.53,33.19,5.91,33.19,5.91s20.34-97.82,22.93-134.6c1.47-20.79,5.62-57.17,5.62-57.17S253.19,442.6,250.35,475Z" transform="translate(211.35 0.69)"/><path class="cls-10" d="M349.72,378s15.15,64.1,13.11,71.1c-5.85,20.16-60.18,48.47-109.72,7.2,0,0,11.32-47.41,34.84-87.51C288,368.83,296.59,377.76,349.72,378Z" transform="translate(211.35 0.69)"/><path class="cls-11" d="M282.49,377.85s55.44,17.09,67.23.19c5.39-7.71,17.24-46.26,20.95-70.9-8.85-21-28.67-59.34-28.67-59.34a41.41,41.41,0,0,0-7.12-.85c7.13,26.8-2.57,33.11-2.57,33.11-29.52.84-36.77-22.65-36.77-22.65l-7.11,4.49s22,45.67-20.46,66.56C268,328.46,267,377.46,282.49,377.85Z" transform="translate(211.35 0.69)"/><path class="cls-1" d="M300,218.11a2.53,2.53,0,1,1-2.53-2.53A2.52,2.52,0,0,1,300,218.11Z" transform="translate(211.35 0.69)"/><path class="cls-8" d="M289.26,281a22.8,22.8,0,0,1-1,32.22c-9.17,8.62-38,25.07-38.25,12.48-.53-24.73.43-38.17,9.6-46.79S280.63,271.82,289.26,281Z" transform="translate(211.35 0.69)"/><path class="cls-8" d="M290.29,301.91l-19.92-11.48-20,12.52s-11.71,74.64-7.4,91.72c4.6,18.2,13,4.8,16.92-.18C259.87,394.49,292.54,316.41,290.29,301.91Z" transform="translate(211.35 0.69)"/><path class="cls-8" d="M246,402s35.81,25.58,67.6,39.49c0,0,10.5-4.42,5.25-9.27-8.92-8.24-47.9-45.58-56.9-53.83C246,372.9,246,402,246,402Z" transform="translate(211.35 0.69)"/><path class="cls-8" d="M331.7,455.72c-13-5.6-14.25-7.65-16.7-10.58-10.55-12.6,8.54-13.79,13.44-13.1,2.8.4,3.52,6.93,12.74,14.21,0,0,14.07,6.66,17.34,5.83,0,0,3.48.2,3.69,2.68C362.21,454.76,353.25,461.13,331.7,455.72Z" transform="translate(211.35 0.69)"/><path class="cls-8" d="M327.83,431.89s-5.55,4.77,2.74,7.67l10.54-1.26s3,.11,3.43-2.52c0,0-.14-1.74-3.18-1.88Z" transform="translate(211.35 0.69)"/><g class="cls-17"><path class="cls-18" d="M552.24,524.75l-.47-.11-.72-.15c-.17,0-.35-.06-.52-.09l-.51-.09-.36,40.76-67.5,45.55.42-48.65,55.93-37.72c-.82.09-1.65.21-2.48.35l-.55.09-1,.17-.64.13-.93.19-.58.13-1.47.35-.39.1-1.81.5-.32.1c-.84.24-1.66.51-2.49.79l-.09,0c-.83.29-1.66.59-2.48.91l-.18.07q-1.39.55-2.76,1.17l-.13,0c-.92.42-1.83.86-2.72,1.32l-.09,0c-.9.46-1.79,1-2.66,1.46,0,0,0,0,0,0-.88.52-1.74,1.07-2.58,1.63-7.45,5-11.37,10.68-11.41,15.48q.21-24.32.43-48.64c0-4.81,4-10.45,11.41-15.48.84-.57,1.7-1.11,2.58-1.63l.05,0c.87-.51,1.75-1,2.66-1.47l.09,0c.89-.47,1.8-.9,2.71-1.32l.14-.06c.91-.41,1.82-.79,2.75-1.16l.06,0,.15-.06c.81-.31,1.62-.61,2.44-.89l.11-.05c.82-.28,1.64-.53,2.46-.78l.22-.07.14,0,1.79-.49.41-.1,1.44-.35.29-.07.32-.07.89-.18.68-.14.9-.16.48-.09h.11c.84-.14,1.66-.25,2.48-.35l.21,0h.16c.72-.08,1.43-.15,2.13-.2h.42c.66,0,1.32-.08,2-.09h0c.62,0,1.22,0,1.82,0h.45c.6,0,1.2.05,1.78.09h.19l1.78.2.2,0,.14,0,.69.12.56.1.66.14.46.1h.06c.52.13,1,.27,1.52.43l.35.11c.5.17,1,.34,1.45.54s.72.34,1,.52a2.69,2.69,0,0,1,.29.16l.36.2.28.18.35.23.53.38.3.23.1.08c.2.16.39.34.57.51l.07.07a5.44,5.44,0,0,1,.41.42h0a1.42,1.42,0,0,0,.12.13l.18.22q.2.23.36.45l.16.22.09.11.15.24c.1.15.2.3.29.46s.14.22.2.33l.25.47a1,1,0,0,1,.08.14l.08.16.39.82.06.13.48,1.12c.11.25.21.49.32.73l.15.33c.14.32.29.64.45.95l.25.47c0,.09.09.18.14.26.14.25.29.48.45.72l.32.45c.15.22.31.43.48.64s.14.19.22.28c.22.28.46.55.71.83l.05.05c.26.29.54.57.83.85l.26.23.65.59.33.28.71.55.32.23c.36.25.72.5,1.1.74l.07,0,.12.06.07,0,.16.09.12.06.19.09.14.07.22.11.19.09.24.12.29.14.17.08.34.16.18.08.55.25c1.28.57,2.79,1.19,4.19,1.66l67.57-45.59-.43,48.64-67.57,45.59c-1.4-.47-2.91-1.09-4.18-1.65l-.56-.26-.09,0-.42-.2-.16-.07-.31-.15-.19-.09-.24-.12-.14-.06-.23-.12-.11-.05-.19-.1-.09-.05-.15-.08-.06,0-.1,0h0c-.38-.23-.75-.48-1.1-.73l-.33-.25c-.24-.18-.47-.35-.7-.54l-.18-.14-.16-.14-.64-.57-.27-.26c-.29-.27-.57-.55-.83-.83h0l0-.06c-.25-.27-.49-.55-.71-.82-.07-.09-.14-.19-.22-.28l-.48-.64-.12-.15-.2-.3c-.16-.23-.3-.47-.44-.71s-.13-.23-.19-.34l-.2-.37v0c-.16-.32-.31-.65-.46-1l-.12-.27-.37-.87c-.15-.33-.29-.67-.44-1l-.09-.19c-.11-.26-.24-.52-.37-.78-.05-.1-.1-.21-.16-.31s-.16-.31-.25-.46-.12-.23-.19-.34l-.3-.46-.23-.35-.17-.22-.35-.45-.2-.22a6.67,6.67,0,0,0-.52-.55l-.07-.07c-.21-.2-.44-.4-.67-.59l-.29-.22-.53-.39-.36-.23-.63-.38-.29-.16c-.34-.18-.68-.35-1.06-.52s-.95-.37-1.45-.53l-.35-.12C553.27,525,552.76,524.87,552.24,524.75Z" transform="translate(211.35 0.69)"/><path class="cls-19" d="M273,522.62l.43-48.65,86.63,36.45-.36,40.48h.09l.56.07,2.06.2.2,0,1.49.1.56,0,1.11,0h.41c.87,0,1.73,0,2.57,0h.33c.71,0,1.39,0,2.07-.09h.16c.63,0,1.25-.1,1.85-.17l.46,0c.52-.06,1-.13,1.52-.21l.18,0c.54-.09,1.06-.19,1.58-.3l.39-.09c.48-.11.94-.23,1.4-.36l.2-.05.28-.1.73-.23.37-.14.6-.23.34-.14.57-.26.32-.15.56-.3.26-.14c.26-.15.51-.31.76-.47,3.25-2.2,3.74-5,3.82-7.93l0-2.37c0-2.4.19-4.78,1.77-6.86a41.41,41.41,0,0,1,6.76-5.14L482.58,562l-.42,48.65-86.52-36.41a39.82,39.82,0,0,0-6.76,5.14,9.92,9.92,0,0,0-1.76,6.13c0,.79,0,1.57,0,2.36,0,3.18-.31,6.29-3.84,8.67-.24.17-.5.32-.76.48l-.26.14-.56.29-.32.16-.57.25-.33.15-.19.07-.43.16-.36.13-.72.24-.3.09,0,0-.13,0c-.46.13-.93.25-1.42.37l-.2,0-.17,0q-.78.17-1.59.3h0l-.12,0-1.56.22-.22,0-.21,0c-.61.06-1.23.12-1.87.16h-.17q-1,.06-2.07.09h-.31c-.84,0-1.7,0-2.57,0h-.42c-.37,0-.74,0-1.11,0l-.55,0c-.53,0-1.06-.06-1.6-.11H362c-.69-.05-1.38-.12-2.08-.2l-.54-.06c-.61-.08-1.23-.15-1.85-.25l-.23,0h-.08L355.5,599l-.3,0-1.45-.26-.65-.14-1.11-.22-.73-.16-1-.24-.28-.06a1.55,1.55,0,0,0-.23-.06c-.94-.23-1.88-.47-2.82-.74l-.37-.1c-.95-.27-1.9-.56-2.84-.87l-.29-.09c-1-.32-1.94-.65-2.9-1l-.17-.06c-1-.37-2-.77-3-1.18l-1.41-.61c-.66-.29-1.29-.59-1.92-.89l-.63-.31-1.19-.61-.69-.37-1.06-.59-.65-.37-.39-.23-.63-.4-.56-.35c-.38-.24-.75-.49-1.12-.74l-.36-.24c-.46-.33-.92-.66-1.35-1l-.32-.26c-.26-.2-.52-.4-.76-.6l-.14-.12-.9-.8c-.13-.13-.27-.24-.4-.36-.4-.39-.79-.78-1.15-1.17h0c-.32-.34-.61-.68-.88-1l-.25-.33c-.14-.18-.29-.37-.42-.56l-.1-.15-.19-.29c-.15-.23-.3-.47-.43-.71s-.12-.2-.17-.3l-.09-.17c-.13-.25-.25-.49-.35-.74,0,0,0-.09,0-.13s-.14-.35-.2-.52l-.09-.33-.06-.16c-.06-.26-.12-.5-.16-.75a.8.8,0,0,1,0-.15,1,1,0,0,0,0-.16,7.72,7.72,0,0,1-.06-.83v-.09q.15-17.31.31-34.62Z" transform="translate(211.35 0.69)"/><path class="cls-20" d="M645.74,451.89l-209.14-88L273.44,474l86.63,36.45a37.33,37.33,0,0,1-5.84,3.81,48.32,48.32,0,0,1-10.69,3.11c-7.28,1.34-16.23,1.12-21.42,4.62-8.11,5.48-1.73,15.43,14.25,22.55.46.21.93.41,1.41.61,17,7.15,37.56,8.39,45.91,2.75,6.78-4.58,1.56-11.84,5.61-17.16a41.41,41.41,0,0,1,6.76-5.14L482.58,562l67.51-45.54c-.28-.13-.56-.27-.87-.4a79.4,79.4,0,0,0-8.88-3.25c-10.07-2.22-23.68.47-32.38-3.19-10.66-4.75-8.48-15.51,4.63-24.36s32.69-12.55,43.4-8.05c6.64,3,6.38,7.62,9,11.44a19.84,19.84,0,0,0,6,5.72c.32.19,1.53.8,3.05,1.48,1.28.57,2.79,1.19,4.19,1.66Z" transform="translate(211.35 0.69)"/></g><g class="cls-17"><path class="cls-21" d="M454.39,649.92c0,.12,0,.23,0,.36s0,.26,0,.38,0,.21,0,.32,0,.24,0,.36-.05.24-.07.36l-.06.27c0,.13-.06.25-.1.37s-.05.17-.08.26a.58.58,0,0,1-.05.14,7.17,7.17,0,0,1-.42,1s0,0,0,0a8.38,8.38,0,0,1-.54.91.71.71,0,0,1-.1.14,7.6,7.6,0,0,1-.67.83l-.21.23-.23.24-.28.26-.27.23-.25.21-.47.36-.26.18c-.18.12-.36.24-.55.35l-.25.16c-.16.1-.33.19-.5.28l-.28.16-.85.4a23.74,23.74,0,0,1-3.49,1.13c-1,.23-2,.42-3,.57s-2,.25-3,.33c-1.42.12-2.88.19-4.35.22-3.23.1-6.54.07-9.75.16-1.45,0-2.88.1-4.27.22l.43,49.44c1.39-.11,2.82-.18,4.27-.22,3.22-.09,6.53-.06,9.75-.15,1.48,0,2.93-.11,4.36-.23,1-.08,2-.19,3-.33s2-.34,3-.57a22.73,22.73,0,0,0,3.5-1.13l.85-.41.23-.12.56-.31a.05.05,0,0,1,.05,0l.16-.11.57-.36.26-.19.47-.36.15-.11.11-.1.26-.23.28-.26.24-.24.14-.15s0,0,.06-.07a8.92,8.92,0,0,0,.68-.84l0,0,.05-.09a8.46,8.46,0,0,0,.55-.91h0a9.63,9.63,0,0,0,.42-1l0-.08a.42.42,0,0,0,0-.06c0-.1.06-.19.08-.29s.07-.22.09-.33,0-.2.06-.3,0-.16.06-.24,0-.06,0-.09,0-.26,0-.4l0-.28c0-.15,0-.3,0-.44s0-.15,0-.21v-.1Z" transform="translate(211.35 0.69)"/><path class="cls-21" d="M414.53,662.08h0a82.24,82.24,0,0,0-9,3.3l-.88.41.43,49.44c.28-.14.58-.27.89-.41a84.54,84.54,0,0,1,9-3.3h0c.78-.17,1.58-.31,2.39-.43,1-.14,2-.25,3-.33l-.43-49.44c-1,.08-2,.19-3,.33S415.3,661.91,414.53,662.08Z" transform="translate(211.35 0.69)"/><path class="cls-22" d="M473.66,761.53l-.44-49.44-88,37,.36,41.14c-10.23,1.23-19.41.27-24.37-3.08-3.3-2.23-3.8-5.07-3.88-8l0-2.44c0-2.44-.19-4.85-1.79-7a43.15,43.15,0,0,0-6.87-5.22l-88,37,.43,49.44L349,814a42.78,42.78,0,0,1,6.87,5.22,10.16,10.16,0,0,1,1.78,6.2c0,.82,0,1.64,0,2.45,0,3.23.32,6.39,3.9,8.8,8.5,5.73,29.38,4.48,46.66-2.79.49-.21,1-.41,1.44-.63,11.49-5.12,18.11-11.68,18.06-17.06q-.15-17.6-.31-35.18Z" transform="translate(211.35 0.69)"/><path class="cls-21" d="M447.79,658.69l.44,49.44c-9.2,3.87-23,1.15-33.27,3.39a84.4,84.4,0,0,0-9,3.31c-.31.14-.61.27-.89.41l-.43-49.44.88-.41a82.09,82.09,0,0,1,9-3.31C424.75,659.83,438.59,662.56,447.79,658.69Z" transform="translate(211.35 0.69)"/><polygon class="cls-21" points="472 802.23 306.17 690.33 306.6 739.77 472.43 851.67 472 802.23"/><path class="cls-23" d="M423.75,760.87c-5.27-3.56-14.37-3.33-21.77-4.7A48,48,0,0,1,391.11,753a37.47,37.47,0,0,1-5.93-3.86l88-37-68.6-46.29.88-.41a82.09,82.09,0,0,1,9-3.31c10.22-2.25,24.06.48,33.26-3.39,10.48-4.67,8.27-15.61-5.07-24.61s-33.22-12.76-44.43-8c-6.42,2.86-6.16,7.6-8.78,11.48a20.06,20.06,0,0,1-6.09,5.81c-.32.2-1.55.82-3.12,1.52-1.29.58-2.81,1.2-4.22,1.68l-68.69-46.35L94.82,689.64l165.83,111.9,88-37a43.15,43.15,0,0,1,6.87,5.22c4.11,5.41-1.19,12.8,5.7,17.45,8.49,5.73,29.38,4.48,46.66-2.79l1.43-.62C425.5,776.55,432,766.44,423.75,760.87Z" transform="translate(211.35 0.69)"/></g><path class="cls-2" d="M864.14,950.39c0,29.36,53.48,53.15,119.46,53.15s119.46-23.79,119.46-53.15-53.48-53.15-119.46-53.15S864.14,921,864.14,950.39Z" transform="translate(211.35 0.69)"/><path class="cls-24" d="M943.36,938.47c-8.44,8.5-22.35,13-22.35,13a19.08,19.08,0,0,1-18.63-4.82c-2.52-3.52.55-5.46.55-5.46,24.72-18.8,32.13-24.13,32.13-24.13h22.7c1.11,9.13.49,12.81.49,12.81a19.65,19.65,0,0,1-12.46,7.55c-.46.08-1.33-.61-1.77-.43Z" transform="translate(211.35 0.69)"/><path d="M902.82,941.31a6.16,6.16,0,0,0,.47,1.55c1.92,4.11,7.27,5.81,11.5,5.75,5.08-.07,9.7-2.56,14.13-4.79a63.56,63.56,0,0,0,11.71-8c2.55-2.12,5.82-3.11,8.85-4.42,3.41-1.49,6-3.8,8.92-6,0,2.45-.15,4.48-.15,4.48a19.65,19.65,0,0,1-12.46,7.55c-.46.08-1.33-.61-1.77-.43l-.66,1.44c-8.44,8.5-22.35,13-22.35,13a19.08,19.08,0,0,1-18.63-4.82C900.14,943.56,902.31,941.69,902.82,941.31Z" transform="translate(211.35 0.69)"/><path class="cls-6" d="M960.26,733C935,760.88,925,731.4,925,731.4l-3.13-171.31c-.33,2.55-1.17-17.28,30.7-13s39.83,16.67,39.83,16.67S974.92,682.1,960.26,733" transform="translate(211.35 0.69)"/><path class="cls-6" d="M924.85,729.23S937.66,909.64,938.7,916c0,0,15.57,3.45,15.64-.14.18-8.64,18-114.22,18.19-127.8.58-34.38-8.29-40.88-17.13-64C955.4,724,924.79,701.36,924.85,729.23Z" transform="translate(211.35 0.69)"/><path class="cls-25" d="M967.86,739.49c14.67-50.91,24.55-175.72,24.55-175.72s-8-12.39-39.83-16.67-31,15.54-30.7,13c0,0-9.65,92.89-.81,177.32C921.07,737.41,948.29,751.87,967.86,739.49Z" transform="translate(211.35 0.69)"/><path class="cls-8" d="M1016,468.19c4.5,16,23.09,77.21,23.09,77.21-66.54,79.6-116.66,10-117.32,2.69-.8-8.69,8.91-41.88,10.66-77.67C932.46,470.42,950.6,442.5,1016,468.19Z" transform="translate(211.35 0.69)"/><path class="cls-25" d="M922.18,568c-3.15-21.44,3.39-43.06,6.75-64.73h97.47c6.23,20.78,12.72,42.12,12.72,42.12s4.16,49.14-37.57,55C1001.55,600.43,928.81,613,922.18,568Z" transform="translate(211.35 0.69)"/><path class="cls-8" d="M1033.05,736.76c-20.83,31.3-35.09,3.63-35.09,3.63L964.16,573.5c.05,2.57,1-21.74,33.16-22.21s41.86,10.58,41.86,10.58.84,122.37-6.13,174.89" transform="translate(211.35 0.69)"/><path class="cls-8" d="M997.47,738.26s33.48,190.12,35.45,196.23c0,0,15.9,1.09,15.44-2.46-1.11-8.58,1.76-128.46,0-141.92-4.52-34.09-9.25-40-21.42-61.55C1026.92,728.56,993.29,710.71,997.47,738.26Z" transform="translate(211.35 0.69)"/><path class="cls-24" d="M1031.4,930.81,1022,959.52s1.94,25.71,22.56,9.78l6.14-5.95a6.57,6.57,0,0,0,2.21-6.31l-1.83-11-2.18-15.23S1036,922,1031.4,930.81Z" transform="translate(211.35 0.69)"/><path d="M1044.54,965.63l6.14-6a6.34,6.34,0,0,0,2.1-3.29l.11.65a6.57,6.57,0,0,1-2.21,6.31l-6.14,5.95c-20.62,15.93-22.56-9.78-22.56-9.78l.37-1.12C1023.5,964.47,1028.05,978.37,1044.54,965.63Z" transform="translate(211.35 0.69)"/><path class="cls-5" d="M1037.5,737.41" transform="translate(211.35 0.69)"/><path class="cls-26" d="M993.83,745c-11.74-34.45-33.9-177-33.9-177,.05,2.57,6.64-34,38.79-34.51s40.4,11.9,40.4,11.9,10,139.49,3.07,192C1042.19,737.41,1019.61,763.49,993.83,745Z" transform="translate(211.35 0.69)"/><path class="cls-6" d="M937.4,358.56s-54.44,64-81.51,85.24c0,0-18.2-6.72-17.63-19.09,0,0,39.86-59,64.88-93.84C903.14,330.87,937,321.12,937.4,358.56Z" transform="translate(211.35 0.69)"/><path class="cls-6" d="M846.14,419.36S786.69,454,762.07,465.54c0,0-4.42,6.91,2.71,7.57,11.92,1.09,94.76-27,96.78-33.47C871,409.27,846.14,419.36,846.14,419.36Z" transform="translate(211.35 0.69)"/><path class="cls-6" d="M900.45,351.41a22.18,22.18,0,0,0,28.36,13.13,21.88,21.88,0,0,0,12.87-28.28,22.18,22.18,0,0,0-28.36-13.13A21.88,21.88,0,0,0,900.45,351.41Z" transform="translate(211.35 0.69)"/><path class="cls-27" d="M927.63,321.91s-19.4-6.81-32.74,12.24L847.4,403s9.79,21.93,32.9,33.9C880.3,436.93,965.32,358.64,927.63,321.91Z" transform="translate(211.35 0.69)"/><path class="cls-8" d="M1033.93,752.66" transform="translate(211.35 0.69)"/><path class="cls-14" d="M982.65,298.78s3.92-7.54,12.56-22c0,0,18.4-18.9,8.09-42.65,0,0-5.66-19.85-40.38-17C962.92,217.16,959.59,271.82,982.65,298.78Z" transform="translate(211.35 0.69)"/><path class="cls-8" d="M984,267.83s-5.84,54.48,6.62,58.6l-44.43-2.64s7-16.46-1.14-28.61Z" transform="translate(211.35 0.69)"/><path class="cls-9" d="M948.65,314.27c.74-12.44-.82-15-3.58-19.09L984,267.83a266.29,266.29,0,0,0-1.23,33.55C971.52,312.06,962.2,314.57,948.65,314.27Z" transform="translate(211.35 0.69)"/><path class="cls-8" d="M914.88,321.8c-9.9,7.23-11,24.51-7.5,35.31,4,12.4,5.66,28.23,9.72,46.16,5.5,24.3,9.23,43,15.36,67.15,5.08,20,85.29,3.88,85.29,3.88l28.74-98.23s5-25.65-18.28-34.18c0,0-24.47-13.21-42.39-19.28-15.82-5.36-21.55-5.86-37.79-4.86C948,317.75,926.27,318.55,914.88,321.8Z" transform="translate(211.35 0.69)"/><path class="cls-28" d="M929.17,221.29c-2.29,10.45-4.9,15.91-2,25.49,2.6,8.6,2,17.65,5.75,26,5.36,11.89,12.34,10.34,17.67-.61,5.46-11.2,11.14-26.33-1.18-34.63-7.91-5.32-10.76-14.49-20.23-16.24Z" transform="translate(211.35 0.69)"/><path class="cls-14" d="M936,303l-1.85-6.16L929.5,274a23,23,0,0,1,.37-9.46,23.27,23.27,0,0,0,.8-9.72c-2.8-16.34,6.09-24.84,6.09-24.84,10.18-14.46,32.51-13.33,32.51-13.33,27.56,2.75,28.54,29.61,28.54,29.61,3.59,18-11.3,32.1-11.33,32.13-1.19,1.12-.9,7-1.33,8.65-1.81,7-8.82,11-15,13.74-6.77,3-14.94,6.08-22.37,6.38C945,307.29,937.09,306.48,936,303Z" transform="translate(211.35 0.69)"/><path class="cls-28" d="M930.07,273.59c3.62,3.27,8.54,1.78,12.4,4.14,2.52,1.55,3.77,1.45,6.53.64a10.3,10.3,0,0,1,6.23.21c2.3.67,6.48,2.67,8.71,3.57a8.23,8.23,0,0,0,9.88-2.28c2.77-3.38,3.82-4.08,5.12-8.12,2.4-7.45,9.93-7.9,15.12-3.72a44.66,44.66,0,0,1-7.58,10.37c-1.19,1.12-.9,11.86-1.33,13.51-1.81,7-8.82,11-15,13.74-6.77,3-17.11,3.38-24.54,3.69-2.81.12-8.53-2.86-9.59-6.39l-1.85-6.16L929.5,274c-.08-.4-.11-.84-.16-1.27A6,6,0,0,0,930.07,273.59Z" transform="translate(211.35 0.69)"/><path class="cls-28" d="M929.56,231c6.24,0,6.17,5.23,11,8.14,10.25,6.23,26.14-2.91,34.4,7.2a18.84,18.84,0,0,1,2.09,3.2c2.44,4.55,3.17,10,3.94,15.1.23,1.49-.87,5.3.48,6.44.78.66,2.12.46,3.55,0,.28,2.28-1.56,4-2.35,6.13s-2,3.89-.9,6c2.88,5.47.67,4.56.93,15.54,1.78-2.6,6.16-5.76,7.55-7a55.9,55.9,0,0,0,10.66-11.8c2.81-4.41,4.65-9.36,6.48-14.23,3-8,4.7-16.64,2.31-25,0,0-1.89-19.48-18.18-21.56,0,0,2.07-12.54-27.7-15.86,0,0-23.51.37-24.8-7.75,0,0-4.75,4.06-3.57,10.33,0,0-9.67,2.95-14-8.11C921.38,197.82,913.33,227,929.56,231Z" transform="translate(211.35 0.69)"/><path class="cls-14" d="M982.23,283a4.9,4.9,0,0,0,3.12,1.86c3.71.68,7.42-2.77,8.29-7.71s-1.41-9.48-5.12-10.16a6,6,0,0,0-5,1.54c-2.12,1.83-2.82,5.85-2.84,8.71A9.31,9.31,0,0,0,982.23,283Z" transform="translate(211.35 0.69)"/><path class="cls-15" d="M986.22,271.36c.57-2.58,5.57.56,4.59,1.93a7.91,7.91,0,0,1-2.37,1.81,3.87,3.87,0,0,0-2,2.67c0,.15-.12.6,0,.72.63.56,3.18-1.72,3.75-2.2a4.45,4.45,0,0,0,1.14-4.11,2.66,2.66,0,0,0-2.68-2.32c-1.19-.07-2.41-.14-2.52,1.35,0,0,0,.28.05.15Z" transform="translate(211.35 0.69)"/><path class="cls-15" d="M987.59,274.29c-.49-.63-1.07-.23-1.68.11a2.53,2.53,0,0,0-1.14,1.43,6.21,6.21,0,0,0,.14,4.45,3.33,3.33,0,0,0,2.66,1.86c1.6.14,2.24-1.21,2.47-2.55.06-.36.19-1.22-.14-1.48s-.69.27-1,.5a2.25,2.25,0,0,1-1.41.34,2.88,2.88,0,0,1-2.25-1.34,1.89,1.89,0,0,1-.19-.44c-.1.88-.08,1.09.07.61a2.29,2.29,0,0,1,.38-.59c.44-.56,1.12-.91,1.59-1.44.23-.24.72-1.15.48-1.46Z" transform="translate(211.35 0.69)"/><path class="cls-15" d="M944,272.23l7.51,2.9s-10.13.63-10.52-2.31c0,0,1.54-5.75,3.2-11.19C944.14,261.63,942.84,271.8,944,272.23Z" transform="translate(211.35 0.69)"/><path class="cls-28" d="M957.06,261.63c0,1.59.88,2.87,2,2.87s2-1.28,2-2.87-.87-2.87-2-2.87S957.06,260.05,957.06,261.63Z" transform="translate(211.35 0.69)"/><path class="cls-28" d="M935.4,259.23c0,1.59.88,2.87,2,2.87s1.95-1.28,1.95-2.87-.87-2.87-1.95-2.87S935.4,257.64,935.4,259.23Z" transform="translate(211.35 0.69)"/><path class="cls-28" d="M955,256.06c-.7.15-.87-.8-.87-.8a3.32,3.32,0,0,1,0-1.68,1.63,1.63,0,0,1,.84-.85,23.75,23.75,0,0,1,8.3,1.09c1.64.49,4.31,1.71,4.49,3.23,0,.46.09,1.24-.42,1.38A67.39,67.39,0,0,0,955,256.06Z" transform="translate(211.35 0.69)"/><path class="cls-28" d="M930.4,253.59a59.1,59.1,0,0,1,9.68,1c.64.33,1.06-.53,1.06-.53a3.26,3.26,0,0,0,.41-1.63,1.57,1.57,0,0,0-.57-1,17.58,17.58,0,0,0-7.18-1.13,13.88,13.88,0,0,0-3.6.49A6.89,6.89,0,0,0,930.4,253.59Z" transform="translate(211.35 0.69)"/><path class="cls-1" d="M939.76,281.4c-.61,0-.94.28-.71.73,0,0,2.7,5.08,7.43,5.65s8.6-3.71,8.6-3.71c.37-.42,0-.84-.72-.94C954.36,283.13,946.19,282.09,939.76,281.4Z" transform="translate(211.35 0.69)"/><path class="cls-26" d="M1032.38,525.94s17.07,27.55,0,58.43S963.2,604,963.05,564C962.89,524.49,998.85,509.38,1032.38,525.94Z" transform="translate(211.35 0.69)"/><path class="cls-27" d="M948,317.75s-21.76.8-33.15,4.05c-9.9,7.23-11,24.51-7.5,35.31,4,12.4,5.66,28.23,9.72,46.16,5.5,24.3-1.43,42.07,4.7,66.2,5.08,20,111.21,0,111.21,0l13.48-93.4s5-25.65-18.28-34.18c0,0-23.36-12.82-41.28-18.89,0,0,2.8,18.89-28,13.67C958.93,336.67,940.11,332.14,948,317.75Z" transform="translate(211.35 0.69)"/><path class="cls-27" d="M1033,469.47c4.5,16,8.07,70.09,8.07,70.09-12.2,50.6-124.45,14.19-125.12,6.93-.79-8.69,2.65-50,4.41-85.83C920.37,460.66,967.58,443.77,1033,469.47Z" transform="translate(211.35 0.69)"/><path class="cls-8" d="M999.92,378.46c7.33,14.9,34.51,90.08,43.25,102,2.33,3.16,24.73,17.59,29.77-2.09-12.35-78-31-122.56-31-122.56s-21.81-18.19-39.24-1.37C1002.67,354.41,994.76,368.14,999.92,378.46Z" transform="translate(211.35 0.69)"/><path class="cls-8" d="M996.83,365.14a26.26,26.26,0,1,0,30.26-21.52A26.26,26.26,0,0,0,996.83,365.14Z" transform="translate(211.35 0.69)"/><path class="cls-27" d="M1022.73,339s22.56,8.46,27.9,26.77l13.93,49.84s-18.25,26.54-45.45,25.66L992.24,381.6S974.16,348.07,1022.73,339Z" transform="translate(211.35 0.69)"/><path class="cls-6" d="M733.86,481.59l6.95-.19s-12.68,3.25-16.76-.86c0,0-1-.65.58-2.13,0,0,11.21-.38,16.14-1.79,0,0-11.1,2.68-19,1.88,0,0-3.1-2,.24-3.87-2.52-1-.37-2.64-.37-2.64a44.46,44.46,0,0,1,7.55-2.91,178.29,178.29,0,0,0,17.3-6.75s-7.31-4.78-4.57-8.64l11.28,5.95,10.21,6.56,1.36,6.91-10.62,7.39s-10.33,4.14-16.17,4.34C738,484.84,721.22,484.25,733.86,481.59Z" transform="translate(211.35 0.69)"/><path class="cls-26" d="M993.83,745,1023,926.91s9.68,9.33,32.12,0l3.72-88.88s6.59-58.73-16.67-100.62C1042.19,737.41,996.38,700.44,993.83,745Z" transform="translate(211.35 0.69)"/><path class="cls-25" d="M967.86,739.49s12.43,18,1.29,85.46L957.76,917.1s-13.11,7.85-27.86.36l-9.19-183.58S929,702.71,967.86,739.49Z" transform="translate(211.35 0.69)"/><g class="cls-17"><path class="cls-29" d="M754.85,517.41c0-2.21-1.17-4.22-3.58-5.85a12,12,0,0,0-1.21-.71l-.4-.2c-.3-.14-.61-.28-.93-.41l-.23-.11-.21-.07c-.51-.19-1-.37-1.57-.53h0c-.55-.16-1.11-.29-1.69-.42l-.19-.06-.24,0c-.68-.15-1.37-.28-2.07-.4h-.06l-.17,0-2.21-.32-.24,0-2.36-.28-.13,0-1.92-.22c-.75-.08-1.5-.17-2.24-.27l-.41-.05-2.15-.31-1.1-.19c-.75-.14-1.49-.29-2.24-.45l-.4-.09c-.55-.12-1.08-.25-1.62-.39h0c-.55-.14-1.08-.29-1.61-.44l-.51-.15L722,505l-.53-.18c-.37-.12-.73-.26-1.09-.39l-.41-.16c-.46-.18-.9-.36-1.33-.56a38.71,38.71,0,0,1-5.93-3.86l.44,49.44a37.47,37.47,0,0,0,5.93,3.86c.42.2.87.38,1.32.57l.1,0,.31.11c.36.14.73.27,1.11.4l.51.18,1.12.35.31.09.16,0,1.62.44h0l1.66.39.16,0,.22,0c.75.17,1.5.32,2.25.46l.92.17.18,0,2.15.31.43.06,2.2.26h0l1.45.16c.19,0,.39.05.59.06l2.38.29.19,0c.75.1,1.5.21,2.23.33l.24,0c.71.12,1.4.25,2.07.4l.44.1c.58.13,1.15.27,1.69.43s1.08.35,1.6.54l.44.18c.32.12.63.27.94.41l.4.2a12,12,0,0,1,1.21.71c2.41,1.63,3.56,3.64,3.58,5.85Z" transform="translate(211.35 0.69)"/><path class="cls-30" d="M683.22,626.29l.51-.11.68-.16.58-.09.48-.09.36,41.43,68.61,46.3L754,664.13l-56.83-38.35c.83.1,1.66.21,2.5.35l.58.1.94.17.68.14.9.18.64.15,1.46.35.41.1q.91.24,1.83.51l.35.1c.84.25,1.67.51,2.5.8l.13,0c.83.29,1.66.59,2.48.91l.2.08c.94.37,1.88.77,2.8,1.18l.14.06c.93.42,1.85.87,2.76,1.34l.09,0q1.38.72,2.7,1.5l.05,0c.9.53,1.77,1.08,2.62,1.65,7.58,5.11,11.56,10.85,11.6,15.74q-.21-24.72-.43-49.44c-.05-4.89-4-10.63-11.6-15.74-.85-.57-1.73-1.13-2.62-1.65l0,0c-.88-.52-1.79-1-2.7-1.49l-.1-.05c-.9-.47-1.83-.92-2.76-1.34l-.14-.06c-.92-.42-1.85-.81-2.79-1.18l-.06,0-.14-.06c-.83-.32-1.67-.63-2.51-.92l-.09,0c-.84-.29-1.69-.55-2.54-.8l-.19-.07-.13,0c-.61-.19-1.23-.35-1.84-.51l-.38-.09-1.51-.37-.28-.07-.31-.06-.94-.2-.65-.13-.95-.17-.46-.08-.12,0c-.85-.14-1.7-.26-2.54-.36l-.19,0-.15,0c-.73-.08-1.46-.15-2.18-.2l-.18,0h-.24c-1.34-.09-2.65-.12-3.93-.08h-.42c-.62,0-1.24,0-1.84.1h-.15c-.62,0-1.24.12-1.84.21l-.2,0-.13,0-.74.13-.53.09-.75.16-.4.09h-.05c-.54.13-1.06.29-1.56.44l-.35.12c-.51.17-1,.34-1.48.54s-.73.35-1.07.53l-.3.17-.36.2-.28.18-.37.24-.53.38-.3.23-.11.09-.57.51s0,0-.07.06-.29.29-.42.44l-.12.14c-.06.07-.13.14-.19.22s-.25.3-.37.46-.11.14-.16.22l-.09.11c-.06.09-.1.17-.15.25a4.53,4.53,0,0,0-.3.46c-.07.12-.14.23-.2.35s-.17.31-.25.45l-.09.16L673,584c-.13.26-.26.53-.38.79l-.08.18c-.16.35-.31.71-.46,1.06l-.36.82c0,.1-.09.2-.13.31-.15.32-.3.65-.46,1-.09.17-.18.34-.28.5l-.12.24c-.14.24-.29.49-.46.73s-.21.29-.31.45l-.5.65-.22.28c-.22.28-.46.56-.71.84a.22.22,0,0,0-.06.07l-.85.85-.26.25-.67.59-.34.29c-.23.18-.47.37-.71.54l-.34.26c-.36.25-.73.5-1.11.74l-.13.07-.05,0-.15.08-.09.05-.19.09-.13.07-.2.1-.18.09-.2.1-.23.11-.23.11c-.08,0-.17.07-.25.12l-.36.16-.17.08c-.18.09-.37.17-.57.25-1.29.58-2.8,1.21-4.22,1.69l-68.68-46.35.43,49.44L657.3,648c1.41-.48,2.92-1.11,4.22-1.68l1.06-.48,0,0,.45-.21h0l.32-.15.12-.07.23-.11.15-.08a.91.91,0,0,0,.17-.09l.15-.07.12-.06.12-.07.08,0,.08,0,0,0c.39-.24.76-.49,1.12-.75l.33-.24.72-.56.17-.13.16-.15c.23-.19.45-.39.67-.59l.27-.25c.29-.28.57-.56.84-.85v0l.06-.06c.25-.28.48-.55.71-.83l.22-.29c.17-.21.33-.42.49-.64l.13-.17.19-.28c.16-.24.31-.48.45-.73l.14-.26c.09-.16.17-.3.24-.45l0,0c.16-.33.31-.65.46-1,.05-.11.09-.21.14-.3.11-.28.23-.54.35-.82s.31-.72.47-1.08l.07-.15c.12-.28.25-.55.39-.82a3,3,0,0,1,.16-.31c.08-.16.16-.32.25-.47s.13-.24.2-.35l.3-.46.24-.36.17-.22.36-.46c.07-.07.13-.15.2-.23s.34-.37.53-.55l.07-.08c.21-.2.45-.4.69-.59l.29-.23a5.3,5.3,0,0,1,.54-.39l.36-.24.65-.39.29-.16c.34-.18.69-.36,1.07-.53s1-.38,1.49-.54l.34-.12C682.17,626.56,682.68,626.42,683.22,626.29Z" transform="translate(211.35 0.69)"/><polygon class="cls-31" points="1177.93 575.37 1178.37 624.81 965.79 714.26 965.36 664.82 1177.93 575.37"/><path class="cls-32" d="M588.18,552.23l87.93-37a42,42,0,0,1,6.88,5.22c4.11,5.41-1.19,12.8,5.71,17.45,8.49,5.73,29.37,4.47,46.65-2.79l1.43-.62c16.24-7.24,22.75-17.35,14.49-22.92-5.27-3.56-14.37-3.33-21.77-4.7a48.56,48.56,0,0,1-10.87-3.17,38.71,38.71,0,0,1-5.93-3.86l88-37.05,165.83,111.9L754,664.13,685.4,617.84c.27-.14.55-.27.85-.4a81.83,81.83,0,0,1,9.06-3.32c10.23-2.25,24.07.48,32.91-3.24,10.83-4.82,8.62-15.76-4.71-24.76s-33.23-12.76-44.11-8.18c-6.75,3-6.49,7.75-9.11,11.63a20,20,0,0,1-6.08,5.81c-.32.19-1.56.82-3.13,1.51-1.29.58-2.8,1.21-4.22,1.69Z" transform="translate(211.35 0.69)"/></g><path class="cls-14" d="M290.08,785.19s7.28-4.72.29-13.42c-18.05-1.15-39.27-10.9-39.27-10.9-26.54-8.35-63.81-49.43-80.78-68.12-19-21-47.9-3.17-32.42,20.79,29,44.84,105.11,74.4,151.8,72.65" transform="translate(211.35 0.69)"/><path class="cls-33" d="M92.53,993.74C103.62,941.94,106.94,822,106.94,822s-8.89-11.8-40.89-13.85-29.87,17.65-29.73,15.09c0,0,0,84.91,14.73,168.52C51.05,991.71,73.87,1007.45,92.53,993.74Z" transform="translate(211.35 0.69)"/><path class="cls-34" d="M36.65,829.06C33.49,807.63,40,786,43.4,764.34h97.46c6.24,20.77,12.72,42.11,12.72,42.11s4.17,49.15-37.57,55C116,861.49,43.27,874.09,36.65,829.06Z" transform="translate(211.35 0.69)"/><path class="cls-2" d="M-20.57,1203.17c0,41.32,75.28,74.81,168.15,74.81s168.13-33.49,168.13-74.81-75.28-74.81-168.13-74.81S-20.57,1161.85-20.57,1203.17Z" transform="translate(211.35 0.69)"/><path class="cls-24" d="M245.38,1200.46l-5.55-.32c-1.89-.29-1.88,2.69-2.13,2.79-5.81,2.29-11,4.08-13.15,4.17,0,0-10.28-1.34-11.38-4.45l1.46-19.06c11.44-1,23.39-3.18,23.39-3.18l25.16-3.53c12.11-1.26,14.31,3.11,14.31,3.11S284.91,1191.07,245.38,1200.46Z" transform="translate(211.35 0.69)"/><path class="cls-35" d="M230.11,1199.34a30.2,30.2,0,0,1,6.51-2.12c12.41-2.18,24.55-3.41,34.89-11.38,2.52-1.95,4.3-4.38,4.48-7.27a4.47,4.47,0,0,1,1.5,1.42s7.42,11.08-32.11,20.47l-5.55-.32c-1.89-.29-1.88,2.69-2.13,2.79-5.81,2.29-11,4.08-13.15,4.17,0,0-10.28-1.34-11.38-4.45l.36-4.65C217.62,1200.36,224.84,1201.78,230.11,1199.34Z" transform="translate(211.35 0.69)"/><path class="cls-24" d="M77.29,1195.75l-5.56-.32c-1.89-.3-1.88,2.67-2.14,2.78-5.8,2.28-11,4.08-13.14,4.17,0,0-10.27-1.34-11.37-4.45l1.44-19.06c11.45-1,23.4-3.18,23.4-3.18l25.17-3.53c12.1-1.27,14.3,3.12,14.3,3.12S116.81,1186.35,77.29,1195.75Z" transform="translate(211.35 0.69)"/><path class="cls-35" d="M62,1194.62a30.38,30.38,0,0,1,6.51-2.12c12.41-2.17,24.55-3.41,34.89-11.39,2.52-1.95,4.3-4.37,4.48-7.26a4.42,4.42,0,0,1,1.5,1.43s7.42,11.07-32.1,20.47l-5.56-.32c-1.89-.3-1.88,2.67-2.14,2.78-5.8,2.28-11,4.08-13.14,4.17,0,0-10.27-1.34-11.37-4.45l.35-4.64C49.52,1195.64,56.74,1197.05,62,1194.62Z" transform="translate(211.35 0.69)"/><path class="cls-33" d="M75.16,1180.26c4.12-4.92,17.64-185.64,17.64-185.64,2.25-27.78-43.95-16.12-43.95-16.12-6.73,27.66-5.64,32.87-7.75,67.18-.84,13.56,1.32,125.83.82,134.47C41.92,1180.15,63.36,1194.35,75.16,1180.26Z" transform="translate(211.35 0.69)"/><path class="cls-36" d="M110.6,789.46s27.73,47.22,10.66,78.1-89-2.73-84.56-38.48C41.55,789.87,77.07,772.89,110.6,789.46Z" transform="translate(211.35 0.69)"/><path class="cls-8" d="M130.49,729.25c4.51,16,23.09,77.2,23.09,77.2-50.93,48-116.65,9.95-117.32,2.69-.79-8.69,8.91-41.88,10.67-77.66C46.93,731.48,65.07,703.55,130.49,729.25Z" transform="translate(211.35 0.69)"/><path class="cls-5" d="M152,998.46" transform="translate(211.35 0.69)"/><path class="cls-36" d="M191.77,984.78c-5.41-52.71-43-187.16-43-187.16s-11-10.1-42.06-2.21-34.52,48.47-35.17,46c0,0,36.17,85.09,84.29,160.07C155.88,1001.47,179.13,1013.37,191.77,984.78Z" transform="translate(211.35 0.69)"/><path class="cls-36" d="M238.66,1178.25c-.91-6.35-47.78-195.19-47.78-195.19-11-23.29-42.72,1.23-42.72,1.23.11,16.9.56,37.29,11.48,69.9,4.3,12.88,44.15,129.5,46.92,137.68C206.56,1191.87,230.11,1199.34,238.66,1178.25Z" transform="translate(211.35 0.69)"/><path class="cls-6" d="M10.23,606.86s-5,84.82-1.82,119.06c0,0,0,15.56,27.4,23.36,0,0,10-94.43,18.09-136.59C53.9,612.69,37.71,581.42,10.23,606.86Z" transform="translate(211.35 0.69)"/><path class="cls-6" d="M40.83,628.77a22.19,22.19,0,0,1-29-11.56,21.88,21.88,0,0,1,11.68-28.79,22.2,22.2,0,0,1,29,11.56A21.88,21.88,0,0,1,40.83,628.77Z" transform="translate(211.35 0.69)"/><path class="cls-37" d="M29.34,582.85s-20,4.64-21.11,27.87L5,694.32s20,13.29,45.94,11C50.93,705.35,80.83,593.71,29.34,582.85Z" transform="translate(211.35 0.69)"/><path class="cls-8" d="M148.39,1013.71" transform="translate(211.35 0.69)"/><path class="cls-8" d="M105,529.78s.18,29.86,2.79,59.6l-39.39-6.53s5.77-13.58-2.35-25.72Z" transform="translate(211.35 0.69)"/><path class="cls-8" d="M29.34,582.85c-9.89,7.23-11,24.52-7.5,35.31,4.06,12.41,5.67,28.23,9.73,46.16,5.5,24.31,9.23,43,15.36,67.16,5.08,20,85.28,3.87,85.28,3.87L161,637.12s4.95-25.64-18.28-34.17c0,0-24.48-13.22-42.39-19.29-15.82-5.36-21.56-5.86-37.79-4.86C62.5,578.8,40.73,579.6,29.34,582.85Z" transform="translate(211.35 0.69)"/><path class="cls-36" d="M146.85,787s17.06,27.54,0,58.42S77.67,865,77.51,825.05C77.36,785.54,113.32,770.43,146.85,787Z" transform="translate(211.35 0.69)"/><path class="cls-37" d="M62.5,578.8s-21.77.8-33.16,4.05c-10.3,7.53-10.11,22.3-8.13,33.48,3.8,21.37,7.65,43,9.63,64.59.88,9.58,3.27,29.07,4,38.66.7,9.31,3.64,14.44,13.16,19.36,7.24,3.73,12.62.76,20.51,1,20.05.54,39.85-1.65,59.73-4.11.83-.1,31.85,20.82,21.65,5.43L161,637.12s4.95-25.64-18.28-34.17c0,0-16.34-10.23-34.26-16.3C108.42,586.65,77.26,587.44,62.5,578.8Z" transform="translate(211.35 0.69)"/><path class="cls-14" d="M118.23,564.26l1.68-6.48,4-23.91a23.93,23.93,0,0,0-.75-9.84,24.38,24.38,0,0,1-1.22-10.1c2.29-17.12-7.31-25.63-7.31-25.63-11.16-14.67-34.38-12.62-34.39-12.61-12,1.82-22.56,6.8-28.55,17.78-5.43,10-8.39,22.11-5.16,33.23,3.53,12.19,10.36,21.72,19.4,30.37,5.79,5.53,11.7,6.21,19.27,9,5.27,1.92,15.36,3.05,21,3.08C109.08,569.14,117.26,568,118.23,564.26Z" transform="translate(211.35 0.69)"/><path class="cls-38" d="M113.64,498.23l-3.7,14.85c-4.22,1.84-5.92,3.48-5.34,9l1.34,12.26-3.34,1.28c.28-4.91-6.53-5-6.53-5-5-.28-5.82,4-5.54,8,.74,10.61-3.12,27.46-12,30.42-3.51,1.18-10.13,2.4-11.24-2.36C65.91,561,54.89,549.4,54.89,549.4,41.66,536.58,38.34,514.7,44.6,498a40.42,40.42,0,0,1,9.5-14.05c8.25-7.89,18.64-11.78,29.6-13.2,0,0,15.09-1.85,23.57,4.11a48.86,48.86,0,0,1,11,10S121.44,491.68,113.64,498.23Z" transform="translate(211.35 0.69)"/><path class="cls-14" d="M101.48,546.06a6.14,6.14,0,0,1-3.87,1.46c-4.41.22-8.33-3.67-8.76-8.68s2.81-9.24,7.21-9.45a7.78,7.78,0,0,1,5.62,2.14c2.26,2.08,2.58,6.15,2.26,9A8.41,8.41,0,0,1,101.48,546.06Z" transform="translate(211.35 0.69)"/><path class="cls-15" d="M98.14,533.94c-.43-2.62-5.59.24-4.69,1.67a8.11,8.11,0,0,0,2.26,1.94,3.85,3.85,0,0,1,1.82,2.77c0,.15.09.61-.06.72-.66.53-3.08-1.9-3.61-2.41a4.43,4.43,0,0,1-.91-4.17,2.66,2.66,0,0,1,2.8-2.16c1.2,0,2.43,0,2.45,1.49,0,0,0,.28-.06.15Z" transform="translate(211.35 0.69)"/><path class="cls-15" d="M96.61,536.78c.52-.6,1.08-.17,1.67.21a2.49,2.49,0,0,1,1,1.49,6.22,6.22,0,0,1-.38,4.43,3.32,3.32,0,0,1-2.77,1.71c-1.6,0-2.17-1.33-2.31-2.69,0-.36-.13-1.22.21-1.46s.68.31,1,.55a2.24,2.24,0,0,0,1.39.42,2.9,2.9,0,0,0,2.33-1.21,2.14,2.14,0,0,0,.21-.43c.05.89,0,1.09-.11.61a2.13,2.13,0,0,0-.34-.61c-.41-.59-1.06-1-1.51-1.53-.22-.26-.65-1.19-.39-1.49Z" transform="translate(211.35 0.69)"/><path class="cls-8" d="M317.9,776.17c-2-3-.26-4.59-4.39-4.73-4.71-.15-8.93-2.48-12.12-2.39-5.56.16-26.57,5.06-12.47,17.09,3.28,2.81,12.67,15.36,19.17,11.64,9.61-5.5,6.34-3.47,11.23-15.42Z" transform="translate(211.35 0.69)"/><path class="cls-8" d="M121.92,621.88A24.66,24.66,0,1,0,156,614.46,24.66,24.66,0,0,0,121.92,621.88Z" transform="translate(211.35 0.69)"/><path class="cls-37" d="M152.85,713.27c3.2,33.62,5.27,116,5.27,116-11.94,31.84-125.78,5-126.44-2.3-.8-8.69,1.54-69.88,3.3-105.67C35,721.28,87.42,687.57,152.85,713.27Z" transform="translate(211.35 0.69)"/><path class="cls-37" d="M137.35,600.15c30,8.44,33.71,44.73,33.71,44.73l13.54,59.59s-34.07,27-54.83,19.42c0,0-16.92-45-22.23-89.82C107.54,634.07,107.76,601.13,137.35,600.15Z" transform="translate(211.35 0.69)"/><path class="cls-38" d="M120,497.89c-3.38,2.73-7.7.94-11.57,0-5.28,6.2,1,12.38-7,15.39-4.23,1.58-10.5,2-15.19,2.8-3.75.6-7.54-.27-10.22,2.53-2.9,3-.15,12.47-3.58,14.28-6,3.16-10.69-13.24-18.33-11.94-6.52,1.1-7.67,11.44-5.39,16.53a8.47,8.47,0,0,0-1.71-1.16c-3.1-8.1-7.07-8.24-10.5-14-5.31-8.93-4.41-6.8-5.47-15.37,0-.08,1-3.75,1.06-3.8,2.49-9.12,6.76-10.68,8.81-14.55,2.16-4.09,5.49-7,8.26-10.55,2.56-3.32,3.84-7.79,6.77-10.76,4.46-4.5,11.75-6.76,17.88-7.56,6.6-.87,12.87,3.23,19.41,2.08,2.68-.47,5.19-2.91,7.88-2.76,3.28.19,5.55,3.44,8.39,4.72,5.27,2.37,13.58,1.41,18.08,5.12,5,4.1,3.91,10,.84,15.06-1.72,2.82-5.2,4.44-6.75,7.36C121.3,492.16,120.13,497.8,120,497.89Z" transform="translate(211.35 0.69)"/><path class="cls-8" d="M1046.4,473.93s-27.32,47.79-48.92,101.68c0,0,.4,10.25,7.95,7.09s68.48-89.47,68.54-97.32C1074.13,465.18,1046.4,473.93,1046.4,473.93Z" transform="translate(211.35 0.69)"/><path class="cls-8" d="M982.91,596.13l6.58-2.24s-11.15,6.86-16.27,4.14c0,0-1.19-.31-.08-2.2,0,0,10.6-3.68,14.89-6.49,0,0-9.8,5.83-17.58,7.42,0,0-3.56-1-.92-3.78-2.69-.18-1.13-2.4-1.13-2.4a44.31,44.31,0,0,1,6.35-5A179.17,179.17,0,0,0,989.29,574s-8.41-2.42-6.93-6.91l12.54,2.34,11.69,3.25,3.34,6.2-8,10.2s-8.63,7-14.16,8.94C987.81,598,971.62,602.41,982.91,596.13Z" transform="translate(211.35 0.69)"/><g class="cls-17"><path class="cls-39" d="M707.46,761c0-2.18,1.15-4.16,3.52-5.76a13.78,13.78,0,0,1,1.19-.7l.4-.19c.29-.15.6-.28.91-.42l.23-.09.21-.08c.5-.19,1-.36,1.54-.52h0c.53-.16,1.09-.3,1.65-.42l.2,0,.25,0q1-.21,2-.39h.07l.22,0L722,752l.27,0c.76-.1,1.51-.19,2.27-.27l.13,0,.52-.06,1.53-.17,2.13-.26.42-.06c.71-.09,1.4-.19,2.09-.3l1.08-.18,2.21-.45.41-.09,1.58-.38h0c.53-.14,1.05-.28,1.57-.44l.49-.14c.36-.1.72-.22,1.07-.33l.52-.18c.36-.12.7-.25,1-.38l.43-.16c.46-.18.9-.37,1.32-.56a37.12,37.12,0,0,0,5.83-3.8l-.42,48.64a37.09,37.09,0,0,1-5.84,3.8c-.42.2-.87.38-1.32.56l-.1,0-.3.1c-.35.14-.71.27-1.07.39l-.51.18-1.07.33-.33.11-.17,0-1.56.43-.07,0-1.56.37-.17,0-.26,0c-.73.16-1.47.31-2.2.45l-.9.16-.2,0c-.67.11-1.36.2-2,.3l-.47.06-2.05.25h-.06l-1.46.17-.73.08-2.25.27-.26,0c-.7.09-1.4.19-2.08.3l-.28,0c-.69.12-1.36.25-2,.39l-.44.1c-.56.13-1.12.27-1.66.43h0a15,15,0,0,0-1.56.53l-.44.17c-.31.13-.61.26-.91.41l-.4.19c-.41.22-.81.45-1.19.7-2.37,1.6-3.5,3.58-3.52,5.76Z" transform="translate(211.35 0.69)"/><path class="cls-39" d="M517.48,806.83l-.06-.28c0-.09,0-.17,0-.25a.28.28,0,0,1,0-.09c0-.13,0-.26-.05-.38s0-.2,0-.29,0-.27,0-.41,0-.15,0-.24v-.09l.43-48.65c0,.12,0,.22,0,.34s0,.27,0,.4,0,.2,0,.29,0,.26,0,.39.05.22.07.33,0,.19.06.29.06.22.09.34,0,.18.08.27,0,.09,0,.13a8.44,8.44,0,0,0,.41,1,0,0,0,0,1,0,0,9.18,9.18,0,0,0,.54.89l.1.14a9.72,9.72,0,0,0,.65.82l.21.22.23.23.28.26.26.23.25.2c.15.12.3.24.46.35a2,2,0,0,0,.25.18c.18.13.37.25.56.37l.22.13.53.3.25.13.83.4c.56.23,1.13.44,1.72.63l.6.17c.4.11.8.23,1.21.33l.34.07c.46.11.93.2,1.41.29l.58.09,1.36.2.45,0q.88.11,1.8.18l1.15.07c.33,0,.65,0,1,.06L537,767l1,0c.76,0,1.52,0,2.29,0h.06l2.71,0,1.72,0h.86l1.46,0h.37l.64,0,1.11.05,1,0,1.07.07.36,0h0l1.18.11.24,0,1.52.19.18,0q1.11.15,2.19.39l.06,0H557l.1,0,.15,0,.13,0,.21.07.15,0,.26.09.16,0,.3.1.19.06.34.11.19.07.37.12.22.08.38.13.25.09.36.13.29.11.36.13.31.11.36.14.33.12.36.14.32.13.37.13.32.13.36.15.32.13.38.16.28.12.63.27.87.41-.43,48.63-.87-.4-.63-.27-.22-.09-.44-.19-.26-.1-.42-.17-.29-.12-.4-.15-.3-.12-.38-.15-.32-.12-.36-.14-.31-.11-.37-.13-.29-.11-.35-.12-.32-.11-.29-.11-.31-.11-.28-.09-.28-.1-.26-.08-.24-.08-.25-.08-.22-.07-.2-.07-.19-.06-.18-.05-.14,0-.14,0-.11,0-.13,0c-.72-.16-1.45-.28-2.2-.39-.55-.09-1.11-.16-1.68-.22l-.29,0c-.49,0-1-.1-1.5-.13l-1.06-.07-1-.06-1.09,0-1,0-1.42,0-.89,0-1.71,0-2.23,0h-.57c-.75,0-1.5,0-2.25-.05h-.11c-.32,0-.63,0-.94,0l-1.11,0-1-.07-1.11-.07h-.12c-.57,0-1.14-.1-1.69-.16l-.43-.06-.84-.1v0h0v0l-.54-.09-.57-.1c-.48-.08-.95-.18-1.42-.29l-.33-.06-.1,0c-.39-.09-.76-.2-1.13-.31l-.59-.16c-.59-.2-1.16-.4-1.71-.64l-.84-.39-.27-.16-.5-.27-.06,0a1.08,1.08,0,0,1-.18-.11c-.19-.11-.36-.23-.54-.35l-.26-.18-.46-.35-.15-.12h0l-.11-.09-.24-.22-.29-.27-.23-.23-.14-.15-.06-.07a9.87,9.87,0,0,1-.66-.82l0-.05-.06-.09a9.18,9.18,0,0,1-.54-.89h0a0,0,0,0,0,0,0,7.22,7.22,0,0,1-.4-1l0-.09h0l0-.06a2.5,2.5,0,0,1-.07-.26C517.54,807.06,517.51,807,517.48,806.83Z" transform="translate(211.35 0.69)"/><polygon class="cls-40" points="710.5 818.02 710.07 866.66 919.22 954.67 919.64 906.03 710.5 818.02"/><polygon class="cls-39" points="919.64 906.03 919.22 954.67 1082.37 844.58 1082.8 795.93 919.64 906.03"/><path class="cls-41" d="M871.45,795.24l-86.53-36.41a41.89,41.89,0,0,0-6.76,5.14c-4,5.32,1.17,12.59-5.61,17.17-8.35,5.63-28.9,4.4-45.9-2.75l-1.42-.62c-16-7.12-22.36-17.06-14.25-22.54,5.19-3.5,14.14-3.28,21.42-4.62a47.64,47.64,0,0,0,10.69-3.12,37.12,37.12,0,0,0,5.83-3.8L662.3,707.23l-67.57,45.61c-1.4-.47-2.91-1.1-4.19-1.67-1.52-.68-2.73-1.28-3-1.48a19.65,19.65,0,0,1-6-5.72c-2.58-3.82-2.32-8.48-8.63-11.3-11-4.64-30.46-1-43.73,7.91-13.11,8.85-15.28,19.62-5,24.21,9.05,3.82,22.66,1.12,32.73,3.34a82.35,82.35,0,0,1,8.88,3.25l.87.41-67.5,45.54,209.14,88Z" transform="translate(211.35 0.69)"/></g><path class="cls-2" d="M992.28,1302.67c0,29.36-53.49,53.15-119.46,53.15S753.36,1332,753.36,1302.67s53.48-53.15,119.46-53.15S992.28,1273.32,992.28,1302.67Z" transform="translate(211.35 0.69)"/><path class="cls-6" d="M812.27,1301.05s-12.67-2.32-9.11,8c0,0,29.59,12.71,50.25,9.84,0,0,14.52-.48,12.25-16.24l.24-12.8-19.48,3.69,1.1,12.17Z" transform="translate(211.35 0.69)"/><path class="cls-42" d="M865.66,1302.67a8.18,8.18,0,0,1-1.95,5.49c-5.1,5.88-15.12,6.06-22.17,5.61a238.54,238.54,0,0,1-33.75-4.72c-2.42-.51-3.08-1.3-3.11-2a9.85,9.85,0,0,1,7.59-6l-10.79-1.38c-10-.35-14.47,1.93-16.79,3.43-2.76,7.88,10.66,13.14,10.66,13.14a218,218,0,0,0,31.41,8.76s37.86,8.94,42.44-2.72Z" transform="translate(211.35 0.69)"/><path class="cls-6" d="M887.49,1283.45s-12.67-2.32-9.1,8c0,0,29.58,12.7,50.24,9.84,0,0,14.53-.49,12.25-16.24l.24-12.8L921.64,1276l1.11,12.17Z" transform="translate(211.35 0.69)"/><path class="cls-42" d="M940.88,1285.07a8.22,8.22,0,0,1-1.94,5.49c-5.1,5.88-15.13,6.06-22.18,5.61a241.12,241.12,0,0,1-33.74-4.72c-2.42-.51-3.09-1.3-3.12-2a9.84,9.84,0,0,1,7.59-6l-10.78-1.38c-10-.35-14.48,1.93-16.8,3.43-2.75,7.88,10.66,13.13,10.66,13.13A218.74,218.74,0,0,0,902,1307.4s37.87,8.93,42.45-2.72Z" transform="translate(211.35 0.69)"/><path class="cls-43" d="M884,941.5a36.16,36.16,0,1,0,36.16-36.16A36.17,36.17,0,0,0,884,941.5Z" transform="translate(211.35 0.69)"/><path class="cls-43" d="M942.9,1115.57s-.5,9.09-16.83,9.31c0,0-15.46,5.28-22.13-14.85-26.3-79.27-19.35-162-19.35-162s37.13-20.68,71.71-6.54C956.3,941.5,950.71,1045.55,942.9,1115.57Z" transform="translate(211.35 0.69)"/><path class="cls-43" d="M903.94,1110s12.74,171.32,13.92,177.45c12.44,7.89,23.42-.22,23.42-.22-.07-8.4,9.09-78.46,10-91.62,1.62-22.61,4.34-51.18-10-83.68Z" transform="translate(211.35 0.69)"/><path class="cls-44" d="M838.1,1120.8s-3.49,8.41-19,3.2c0,0-16.33-.14-16-21.34,1.45-83.51,38-170.05,38-170.05s41.21-3.94,69.16,20.87C910.37,953.48,868.67,1057.32,838.1,1120.8Z" transform="translate(211.35 0.69)"/><path class="cls-44" d="M842.14,929.52a36.16,36.16,0,1,0,46.09-22.14A36.15,36.15,0,0,0,842.14,929.52Z" transform="translate(211.35 0.69)"/><path class="cls-44" d="M956.3,936.24c-4.36-40.21-24.54-58.88-24.54-58.88l-69.9-8.83s-19.27,33.53-21.28,67.71c8.35,22.79,38.14,29.43,38.14,29.43l22.61,6.71S952.58,964.59,956.3,936.24Z" transform="translate(211.35 0.69)"/><path class="cls-44" d="M806.4,1119.29s34.67,180,36.75,185.86c-.91-.44,16.39,7.95,24.05-2.89-1.31-8.3-2-99.71-3.05-112.87-1.74-22.61-1.5-43.7-20.44-73.72C843.71,1115.67,796.38,1081.78,806.4,1119.29Z" transform="translate(211.35 0.69)"/><path class="cls-45" d="M867.7,1247.73" transform="translate(211.35 0.69)"/><path class="cls-6" d="M961.48,804.16s-12.74,15-38.06,51.2l4.38,7.42S971.17,840.93,985,816.4Z" transform="translate(211.35 0.69)"/><path class="cls-6" d="M925.62,750.52s32.66,71.24,52.27,68.54c0,0,6.76.42,8.12-4.68,0,0,13.85-12.28-43.74-100.88,0,0-5.62-7.52-17.15-5.58C925.12,707.92,907.63,719.48,925.62,750.52Z" transform="translate(211.35 0.69)"/><rect class="cls-46" x="1084.17" y="695.44" width="35.3" height="37.51"/><path class="cls-8" d="M851,695.6l-1.32-6-2.64-22a19.81,19.81,0,0,1,1.31-8.92,20.35,20.35,0,0,0,1.79-9.13c-1.32-15.71,8.8-23,8.8-23,12.05-12.79,35.26-9.73,35.26-9.73,12,2.28,22.28,7.36,27.68,17.67,4.89,9.35,7.17,20.56,3.3,30.52C920.92,676,913.52,684.32,904,691.73c-6.13,4.73-12.11,5-19.87,7.18-5.41,1.49-15.61,2-21.23,1.74C859.89,700.51,851.75,699,851,695.6Z" transform="translate(211.35 0.69)"/><path class="cls-45" d="M867.06,675.27" transform="translate(211.35 0.69)"/><path class="cls-45" d="M867.06,675.27c1.74-2.48,8.08-4,8.09-4,7.66,0,6.66,10.23,7.38,14.66.23,1.44.51,2.92.84,4.4,3.65,13,14.58,12.89,23.92,14.46.34-.21.71-.41,1.09-.62,1.69-5.77,7.07-11.75,7.07-11.75,14-12.13,18.6-33.92,13.26-51.07A40.41,40.41,0,0,0,920,626.71c-7.84-8.4-18.06-12.89-29-15s-49.7,3.22-39.1,26.82c0,0,16,18.44,15.19,36.69" transform="translate(211.35 0.69)"/><path class="cls-47" d="M867.06,675.27c1.38-3.51,4.8-6.21,8.65-5.07a5.79,5.79,0,0,1,4.22,6.24c0,.63-.19,1.25-.25,1.88-1.11,6.73-8.21,9.3-8.21,9.3" transform="translate(211.35 0.69)"/><path class="cls-48" d="M875,673.38a3.88,3.88,0,0,0-1.7-.46c-2.58-.16-4.65,3.81-2.08,4.51a1.47,1.47,0,0,1,0,2c-.89,1-2.08,2.35-1.81,3.7.16.81,1.06,1.24,1.86,1.44.65.16.78-.35.27-.59a2.89,2.89,0,0,1-1-.8c0-.05,0-.09-.07-.14a.24.24,0,0,1-.06-.11.78.78,0,0,1,0-.58,1.59,1.59,0,0,0,2,0c.49-.59.12-1.51.29-2.18a5,5,0,0,1,.59-1.33,1.37,1.37,0,0,0-.94-2.3,5.25,5.25,0,0,0-.78.05c-1.08-.55.12-2.17.78-2.43a2.06,2.06,0,0,1,2.24.39,3.22,3.22,0,0,1,.72,2.27,7.54,7.54,0,0,1-.7,2.72l-.77,1.55c-.27.55.38.79.64.24a15.93,15.93,0,0,0,1.84-4.49A3.41,3.41,0,0,0,875,673.38Z" transform="translate(211.35 0.69)"/><path class="cls-48" d="M867.06,675.27s.31-.45.81-1.24a9.26,9.26,0,0,1,1.07-1.23,7.93,7.93,0,0,1,1.62-1.27,6.86,6.86,0,0,1,2.2-.79,5.57,5.57,0,0,1,2.52.17,6.6,6.6,0,0,1,1.27.54,5.84,5.84,0,0,1,1,.78,4.83,4.83,0,0,1,1.35,2.28,7.08,7.08,0,0,1,0,2.84l-.1.78v.1h0l0-.1v.07l0,.19-.08.38a8.58,8.58,0,0,1-.37,1.36,10.81,10.81,0,0,1-1.19,2.38,14.57,14.57,0,0,1-1.55,1.92,17.77,17.77,0,0,1-2.9,2.41c-.77.51-1.25.77-1.25.77a9.48,9.48,0,0,0,1.41-.46,14.8,14.8,0,0,0,3.42-2,11.8,11.8,0,0,0,1.93-1.89,10.11,10.11,0,0,0,1.59-2.62,10.75,10.75,0,0,0,.52-1.54l.09-.38.05-.19v0l0-.15,0-.1.11-.78a8.37,8.37,0,0,0,0-3.45,6.78,6.78,0,0,0-1.89-3.09c-.24-.19-.45-.39-.7-.56l-.81-.46a7.26,7.26,0,0,0-1.55-.54,6.48,6.48,0,0,0-3.19,0A6.86,6.86,0,0,0,870,670.7a7.1,7.1,0,0,0-1.56,1.68,11.16,11.16,0,0,0-.87,1.5C867.23,674.75,867.06,675.27,867.06,675.27Z" transform="translate(211.35 0.69)"/><path class="cls-1" d="M871.47,686a2.14,2.14,0,1,1-2.14-2.14A2.14,2.14,0,0,1,871.47,686Z" transform="translate(211.35 0.69)"/><path class="cls-49" d="M869.85,687.11a1.68,1.68,0,0,1-.52-3.28h0a2.14,2.14,0,1,0,2.14,2.14c0-.05,0-.1,0-.15A1.67,1.67,0,0,1,869.85,687.11Z" transform="translate(211.35 0.69)"/><path class="cls-42" d="M964.8,894.13l-39-55.91c-1.81-8.22,2.28-24.57,2.28-24.57L940.56,728c-1.47-9.82-2.15-22.29-15.44-20.06-9.37,1.57-11.22,2.88-17,4.74,1.69,8-12,13.07-12,13.07-18.89,8.16-23.26,2.78-23.26,2.78-5,2.72-22,11.22-26.44,14.84-4.59,3.78-7.36,9.65-5.92,19.54l13.6,81.2-2.39,20.17-24.84,63a53.54,53.54,0,0,1,24.2-2.89c7.72.93,14.38,5.48,22.05,6.33,11.59,1.28,20.19-2.9,28.93-8.45a139.47,139.47,0,0,0,33.5-11.77h.73c8.67,0,18.48-.11,24.88-6.89C962.47,902.13,966.44,896.48,964.8,894.13Z" transform="translate(211.35 0.69)"/><path class="cls-8" d="M830.32,873.35l.23-98.65c2.4-27,15.83-31.35,15.83-31.35,27.13-3.18,23,47.11,23,47.11l-11.33,85" transform="translate(211.35 0.69)"/><path class="cls-8" d="M744,927.28c12.45-6.66,13.56-8.81,15.76-11.94,9.46-13.45-9.67-13-14.49-11.93-2.76.63-2.93,7.2-11.5,15.22,0,0-13.47,7.82-16.79,7.27,0,0-3.46.49-3.46,3C713.47,928.88,722.93,934.47,744,927.28Z" transform="translate(211.35 0.69)"/><path class="cls-47" d="M848.08,859.77" transform="translate(211.35 0.69)"/><path class="cls-8" d="M832.36,863,747.87,909.2c-3.65,10.16,1,11.63,1,11.63L814.33,902c27.93-7.48,39-19.2,39-19.2s12.21-8.46-3.37-21.06C850,861.75,842.85,856.14,832.36,863Z" transform="translate(211.35 0.69)"/><path class="cls-45" d="M859.56,669.22c2.19,16.36-.28,38,7.87,55.9,3.63,8,7.63,11.9,5.46,21.14-1.78,7.56-5.36,14.69-7.29,22.51-4.29,17.28,1.53,34.15,21.66,27.9,9.65-3,10.74-2.95,19.52.45,7.39,2.86,14.33,3.66,21.66.09,11.38-5.54,8-13.92,14.33-22.31,4.86-6.39,11.73-6.24,15.39-14.83,4.42-10.37-.84-15.9-6.23-24.7-5.6-9.17-6.5-15.2-4.66-26.26,1.55-9.28-.74-14-3.81-22.51-3.15-8.75-1.78-16.37-3.27-25.15-3-17.34-12.44-40.88-30.61-46-8.91-2.5-20.42-4.45-29-1.3-11.67,4.28-24.67,8.84-24.17,23.19C857,652.14,857.61,654.65,859.56,669.22Z" transform="translate(211.35 0.69)"/><path class="cls-8" d="M747.48,903.07s2.37,6.93-6.25,5.23l-8.44-6.43s-2.62-1.4-1.69-3.9c0,0,1-1.43,3.7,0Z" transform="translate(211.35 0.69)"/><path class="cls-50" d="M939.27,129.82a29.18,29.18,0,1,1-29.17-29.17A29.17,29.17,0,0,1,939.27,129.82Z" transform="translate(211.35 0.69)"/><path class="cls-50" d="M29.48,1355.82A29.17,29.17,0,0,1,.31,1385a29.18,29.18,0,0,1-29.17-29.18A29.17,29.17,0,0,1,.31,1326.65,29.16,29.16,0,0,1,29.48,1355.82Z" transform="translate(211.35 0.69)"/><path class="cls-51" d="M.31,351.83a20.88,20.88,0,0,1-20.88,20.89,20.88,20.88,0,0,1-20.88-20.89A20.88,20.88,0,0,1-20.57,331,20.88,20.88,0,0,1,.31,351.83Z" transform="translate(211.35 0.69)"/><path class="cls-51" d="M1203.31,508.58a20.88,20.88,0,1,1-20.88-20.88A20.87,20.87,0,0,1,1203.31,508.58Z" transform="translate(211.35 0.69)"/><circle class="cls-52" cx="604.89" cy="307.19" r="20.88" transform="translate(171.3 518.38) rotate(-45)"/><path class="cls-53" d="M-87.6,790.63a20.88,20.88,0,0,1-20.88,20.88,20.88,20.88,0,0,1-20.88-20.88,20.88,20.88,0,0,1,20.88-20.88A20.88,20.88,0,0,1-87.6,790.63Z" transform="translate(211.35 0.69)"/><path class="cls-53" d="M1220,928a20.88,20.88,0,1,1-20.88-20.88A20.87,20.87,0,0,1,1220,928Z" transform="translate(211.35 0.69)"/><path class="cls-37" d="M469.11,88.86A20.88,20.88,0,1,1,448.23,68,20.88,20.88,0,0,1,469.11,88.86Z" transform="translate(211.35 0.69)"/><path class="cls-37" d="M1123.54,1251.84a20.88,20.88,0,1,1-20.88-20.88A20.88,20.88,0,0,1,1123.54,1251.84Z" transform="translate(211.35 0.69)"/><line class="cls-54" x1="48.89" y1="954.19" x2="114.35" y2="954.19"/><line class="cls-54" x1="124.11" y1="954.19" x2="156.85" y2="954.19"/><line class="cls-55" x1="1317.52" y1="1093.9" x2="1393.78" y2="1093.9"/><line class="cls-55" x1="1405.15" y1="1093.9" x2="1443.28" y2="1093.9"/><line class="cls-54" x1="702.7" y1="1342.44" x2="637.23" y2="1342.44"/><line class="cls-54" x1="627.47" y1="1342.44" x2="594.74" y2="1342.44"/><line class="cls-54" x1="1255.71" y1="209.88" x2="1283.18" y2="209.88"/><line class="cls-54" x1="1290.26" y1="209.88" x2="1314.01" y2="209.88"/><line class="cls-54" x1="1223.82" y1="209.88" x2="1247.57" y2="209.88"/><line class="cls-54" x1="1345.54" y1="671.86" x2="1442.01" y2="671.86"/><line class="cls-54" x1="844.74" y1="181.9" x2="853.87" y2="191.03"/><line class="cls-54" x1="860.31" y1="197.47" x2="869.43" y2="206.6"/><line class="cls-54" x1="869.43" y1="181.9" x2="860.31" y2="191.03"/><line class="cls-54" x1="853.87" y1="197.47" x2="844.74" y2="206.6"/><line class="cls-54" x1="78.18" y1="489.14" x2="87.3" y2="498.26"/><line class="cls-54" x1="93.74" y1="504.7" x2="102.87" y2="513.83"/><line class="cls-54" x1="102.87" y1="489.14" x2="93.74" y2="498.26"/><line class="cls-54" x1="87.3" y1="504.7" x2="78.18" y2="513.83"/><line class="cls-54" x1="765.65" y1="1058.31" x2="774.78" y2="1067.43"/><line class="cls-54" x1="781.22" y1="1073.87" x2="790.34" y2="1083"/><line class="cls-54" x1="790.34" y1="1058.31" x2="781.22" y2="1067.43"/><line class="cls-54" x1="774.78" y1="1073.87" x2="765.65" y2="1083"/><path class="cls-54" d="M118.27,309.63a11.33,11.33,0,1,1-11.33-11.33A11.33,11.33,0,0,1,118.27,309.63Z" transform="translate(211.35 0.69)"/><path class="cls-54" d="M865.83,362.77a11.33,11.33,0,1,1-11.33-11.33A11.33,11.33,0,0,1,865.83,362.77Z" transform="translate(211.35 0.69)"/></svg>