<svg xmlns="http://www.w3.org/2000/svg" xmlns:xlink="http://www.w3.org/1999/xlink" viewBox="0 0 373 305"><style><![CDATA[.AB{fill:#fff}.AC{stroke-miterlimit:10}.AD{stroke-linejoin:round}.AE{stroke-linecap:round}.AF{fill:#89e1ff}.AG{fill:none}.AH{fill:#69d6f4}.AI{opacity:.56}.AJ{fill:#b9d1f6}.AK{stroke:#354e6e}.AL{stroke-width:.971}.AM{fill:#072945}.AN{fill:#d41f26}.AO{fill:#354e6e}.AP{fill:#5f7799}.AQ{stroke:#051d2b}.AR{fill:#acc4e5}.AS{stroke-width:.739}]]></style><linearGradient id="A" gradientUnits="userSpaceOnUse" x1="87.338" y1="169.38" x2="426.224" y2="-118.076"><stop offset="0" stop-color="#b9d1f6" stop-opacity="0"/><stop offset=".144" stop-color="#b9d1f6" stop-opacity=".144"/><stop offset="1" stop-color="#b9d1f6"/></linearGradient><circle cx="160.2" cy="107.5" r="101.6" fill="url(#A)"/><linearGradient id="B" gradientUnits="userSpaceOnUse" x1="24.656" y1="138.213" x2="140.947" y2="39.571"><stop offset="0" stop-color="#b9d1f6" stop-opacity="0"/><stop offset=".144" stop-color="#b9d1f6" stop-opacity=".144"/><stop offset="1" stop-color="#b9d1f6"/></linearGradient><circle cx="49.7" cy="117" r="34.9" fill="url(#B)"/><linearGradient id="C" gradientUnits="userSpaceOnUse" x1="292.668" y1="58.7" x2="358.347" y2="15.577"><stop offset="0" stop-color="#b9d1f6" stop-opacity="0"/><stop offset=".144" stop-color="#b9d1f6" stop-opacity=".144"/><stop offset="1" stop-color="#b9d1f6"/></linearGradient><circle cx="301.9" cy="52.6" r="11" fill="url(#C)"/><linearGradient id="D" gradientUnits="userSpaceOnUse" x1="381.593" y1="242.058" x2="-323.847" y2="388.896"><stop offset="0" stop-color="#fff"/><stop offset=".01" stop-color="#fdfdff"/><stop offset=".132" stop-color="#e4edfc"/><stop offset=".268" stop-color="#d1e1f9"/><stop offset=".426" stop-color="#c3d8f7"/><stop offset=".626" stop-color="#bbd3f6"/><stop offset=".997" stop-color="#b9d1f6"/></linearGradient><path d="M358.2 277.8c-7.8 8.3-18.4 12.3-29.6 12.4-7.4.1-14.8-1-22.2-.8-19.2.6-37.1 9.7-56.3 9.6-20.8-.1-41.3-4.2-61.8-7.3-27.1-4.1-54.5-5.8-81.8-6.4-26.4-.5-52.9.9-78.4-7.3-.3-.1-.7-.2-1-.3h331.1" fill="url(#D)"/><path d="M49.2 201.9c.9-.1 1.8.3 2.5 1.4 1.2 1.9 1.6 4.6 3.6 5.7 1.2.7 2.7.5 4.1.7.5 0 1.1.1 1.6.5.6.5.7 1.3.7 2-.1 5.1 1.1 7.3 5.8 9.2 4.5 1.8 3.6 4.9 1.5 8.7-7 13 6.2 7.4 1.8 17.9s1.3 23.1-5.3 17.9c0 0-5.8-12.7-11.8-16.6s3.6-8.6 1.7-13.9c-2.7-7.7-9.3-7.4-4.5-15.8 1.9-3.3.7-6.6-1.1-9.7-1-1.6-2.8-3.5-2.7-5.5.1-1.5 1.1-2.4 2.1-2.5z" fill="#a7c3ea"/><defs><path id="E" d="M49.2 201.9c.9-.1 1.8.3 2.5 1.4 1.2 1.9 1.6 4.6 3.6 5.7 1.2.7 2.7.5 4.1.7.5 0 1.1.1 1.6.5.6.5.7 1.3.7 2-.1 5.1 1.1 7.3 5.8 9.2 4.5 1.8 3.6 4.9 1.5 8.7-7 13 6.2 7.4 1.8 17.9s1.3 23.1-5.3 17.9c0 0-5.8-12.7-11.8-16.6s3.6-8.6 1.7-13.9c-2.7-7.7-9.3-7.4-4.5-15.8 1.9-3.3.7-6.6-1.1-9.7-1-1.6-2.8-3.5-2.7-5.5.1-1.5 1.1-2.4 2.1-2.5z"/><path id="F" d="M120.9 42.2s9.2 88.6 55.7 92.1 14.7 110.1 50.9 132.9S109 289 109 289l11.9-246.8z"/><path id="G" d="M98.2 59.6s7.8 35.9 77.7 53 14.7 45.7 67.8 66.5S90.3 288 90.3 288l-20-161.9 27.9-66.5z"/><path id="H" d="M205.9 129h-18.5c-4.7 0-8.5-3.8-8.5-8.5h0c0-4.7 3.8-8.5 8.5-8.5h18.5c4.7 0 8.5 3.8 8.5 8.5h0c0 4.7-3.8 8.5-8.5 8.5z"/><path id="I" d="M215.3 101.5h-36.9a5.59 5.59 0 0 1-5.6-5.6v-6.7a5.59 5.59 0 0 1 5.6-5.6h36.9a5.59 5.59 0 0 1 5.6 5.6v6.7c-.1 3.1-2.6 5.6-5.6 5.6z"/><path id="J" d="M116 77.3s3.4 18.3 38.7 28.1 6.8 23.4 33.4 34.8-74.6-1.6-74.6-1.6l-12.8-28.1L116 77.3z"/><path id="K" d="M98.2 172.7s7.8 35.9 77.7 53 14.7 45.7 67.8 66.5C296.9 313 90.3 401.1 90.3 401.1l-20-161.9 27.9-66.5z"/><path id="L" d="M116 190.4s3.4 18.3 38.7 28.1c35.3 9.9 6.8 23.4 33.4 34.8s-74.6-1.6-74.6-1.6l-12.8-28.1 15.3-33.2z"/><path id="M" d="M251.1 166s1.8 6.4-4.6 11.5c-2.5 2-5.2 7.4-4.8 10.6.4 3.1 1.6 6.1 3 8.9 1.5 3 2.1 6.3 1.8 9.7-.2 2.5-1 5-1.6 7.5-.3 1.6-2.6 9 .9 18.3 2.4 6.3 3 17.2 3.6 29.1.6 11 12.5 26.4 11.8 37.7-.3 4.7 23.1-35.2 23.4-30.5.3 4.9 0 9.7.5 14.6.4 5 1.9 11.2 6.3 14.2 1.6 1.1 3.6 1.7 5.6 1.8 0 0 .1 3.5.8 3.5.7.1 9.5-2.8 9.5-2.8l3-14-18.5-55.2-10.7-11.6-3.5-50.2c0-.2-5.7-6.9-5.7-6.9l-20.8 3.8z"/></defs><clipPath id="N"><use xlink:href="#E"/></clipPath><linearGradient id="O" gradientUnits="userSpaceOnUse" x1="52.257" y1="240.96" x2="76.859" y2="240.96"><stop offset="0" stop-color="#fff"/><stop offset=".997" stop-color="#b9d1f6"/></linearGradient><path d="M54.4 200.5c.9-.1 1.8.4 2.5 1.7 1.2 2.4 1.6 5.7 3.6 7.1 1.2.9 2.7.7 4.1.8.5.1 1.1.2 1.6.6.6.6.7 1.6.7 2.5-.1 6.4 1.1 9.1 5.8 11.4 4.5 2.2 3.6 6.1 1.5 10.9-7 16.2 6.2 9.2 1.8 22.2-4.4 13.1 1.3 28.7-5.3 22.3 0 0-5.8-15.8-11.8-20.7s3.6-10.7 1.7-17.3c-2.7-9.6-9.3-9.3-4.5-19.6 1.9-4.1.7-8.3-1.1-12-1-2-2.8-4.3-2.7-6.8.1-1.9 1-3 2.1-3.1z" opacity=".23" clip-path="url(#N)" fill="url(#O)"/><path d="M77.1 212.3c-3-1-2.4 4.7-3.6 9-1.3 4.2-14 1.9-8.6 12.5 5.3 10.6-6.8 3.6-3.1 12.8 3.6 9.3.3 19.2 4.2 16.7s2.2-14.2 6.3-15.6 4.8-3 .7-6.8c-4-3.8 10.6-7.5 7-15.1-3.7-7.7.5-12.4-2.9-13.5z" fill="#8ba3c6"/><defs><path id="P" d="M77.1 212.3c-3-1-2.4 4.7-3.6 9-1.3 4.2-14 1.9-8.6 12.5 5.3 10.6-6.8 3.6-3.1 12.8 3.6 9.3.3 19.2 4.2 16.7s2.2-14.2 6.3-15.6 4.8-3 .7-6.8c-4-3.8 10.6-7.5 7-15.1-3.7-7.7.5-12.4-2.9-13.5z"/></defs><clipPath id="Q"><use xlink:href="#P"/></clipPath><linearGradient id="R" gradientUnits="userSpaceOnUse" x1="64.089" y1="247.321" x2="83.582" y2="247.321"><stop offset="0" stop-color="#fff"/><stop offset=".997" stop-color="#b9d1f6"/></linearGradient><path d="M80.2 212c-3-1.4-2.4 6.5-3.6 12.4-1.3 5.9-14 2.6-8.6 17.2 5.3 14.7-6.8 4.9-3.1 17.7 3.6 12.8.3 26.5 4.2 23s2.2-19.6 6.3-21.5 4.8-4.1.7-9.4c-4-5.2 10.6-10.4 7-20.9-3.7-10.5.5-16.9-2.9-18.5z" opacity=".23" clip-path="url(#Q)" fill="url(#R)"/><path d="M71.5 278.7H58.2a3.33 3.33 0 0 1-3.3-3.3v-19.1h19.8v19.1c0 1.9-1.4 3.3-3.2 3.3z" class="AO"/><defs><path id="S" d="M71.5 278.7H58.2a3.33 3.33 0 0 1-3.3-3.3v-19.1h19.8v19.1c0 1.9-1.4 3.3-3.2 3.3z"/></defs><clipPath id="T"><use xlink:href="#S"/></clipPath><path d="M73.2 252.7s-4.6 1.8-4.4 14.9-7.1 12.9-12.4 13.5-7.8-16.4-7.8-17 6.2-12.7 6.3-12.8c.2-.2 18.3 1.4 18.3 1.4z" clip-path="url(#T)" class="AP"/><path d="M237.3 46.4h-71c-3.5 0-6.3-2.8-6.3-6.3v-5.2c0-3.5 2.8-6.3 6.3-6.3h71c3.5 0 6.3 2.8 6.3 6.3v5.2c0 3.4-2.8 6.3-6.3 6.3z" fill="#8ba3c6"/><defs><path id="U" d="M237.3 46.4h-71c-3.5 0-6.3-2.8-6.3-6.3v-5.2c0-3.5 2.8-6.3 6.3-6.3h71c3.5 0 6.3 2.8 6.3 6.3v5.2c0 3.4-2.8 6.3-6.3 6.3z"/></defs><clipPath id="V"><use xlink:href="#U"/></clipPath><linearGradient id="W" gradientUnits="userSpaceOnUse" x1="119.861" y1="47.099" x2="250.665" y2="47.099"><stop offset="0" stop-color="#fff"/><stop offset=".997" stop-color="#b9d1f6"/></linearGradient><path d="M127.2 26.9s11.2 10.6 60.4 4.7 17.4 12.7 56.1 10.8-96.9 24.9-96.9 24.9l-26.9-13.7 7.3-26.7z" opacity=".23" clip-path="url(#V)" fill="url(#W)"/><g class="AD AG AQ AS"><g class="AC"><path d="M170.4 32.6h62.9v9.8h-62.9z"/><path d="M175 37.5h31.1" class="AE"/></g><circle cx="227.9" cy="37.1" r="1.9"/><path d="M229.3 38.4l1.8 1.8" class="AC AE"/></g><path d="M165.2 97.2h-29c-1.6 0-2.9-1.3-2.9-2.9V64.2c0-1.6 1.3-2.9 2.9-2.9h29c1.6 0 2.9 1.3 2.9 2.9v30.1c0 1.6-1.3 2.9-2.9 2.9z" class="AJ"/><defs><path id="X" d="M165.2 97.2h-29c-1.6 0-2.9-1.3-2.9-2.9V64.2c0-1.6 1.3-2.9 2.9-2.9h29c1.6 0 2.9 1.3 2.9 2.9v30.1c0 1.6-1.3 2.9-2.9 2.9z"/></defs><clipPath id="Y"><use xlink:href="#X"/></clipPath><linearGradient id="Z" gradientUnits="userSpaceOnUse" x1="166.056" y1="58.691" x2="130.58" y2="104.602"><stop offset="0" stop-color="#fff"/><stop offset=".997" stop-color="#b9d1f6"/></linearGradient><path d="M126.8 61.6s3.8 13.3 23.3 13.9 6.1 16.6 21.3 20-49.6 3.3-49.6 3.3l5-37.2z" opacity=".6" clip-path="url(#Y)" fill="url(#Z)"/><path d="M157.8 89.7h-14.2a3.33 3.33 0 0 1-3.3-3.3V76h20.9v10.4c0 1.8-1.5 3.3-3.4 3.3z" class="AB"/><circle cx="150.7" cy="82.3" r="2.6" class="AJ"/><path d="M161 77.8h-20.6a2.22 2.22 0 0 1-2.2-2.2h0a2.22 2.22 0 0 1 2.2-2.2H161a2.22 2.22 0 0 1 2.2 2.2h0a2.22 2.22 0 0 1-2.2 2.2z" class="AO"/><path d="M150.7 75.3l8.7-9.7" stroke-width="2.047" class="AC AD AE AG AQ"/><path d="M213.7 277.2h-69.4c-10.9 0-19.8-8.9-19.8-19.8V72.5c0-10.9 8.9-19.8 19.8-19.8h69.4c10.9 0 19.8 8.9 19.8 19.8v184.9c.1 10.9-8.8 19.8-19.8 19.8z" class="AM"/><defs><path id="a" d="M213.7 277.2h-69.4c-10.9 0-19.8-8.9-19.8-19.8V72.5c0-10.9 8.9-19.8 19.8-19.8h69.4c10.9 0 19.8 8.9 19.8 19.8v184.9c.1 10.9-8.8 19.8-19.8 19.8z"/></defs><clipPath id="b"><use xlink:href="#a"/></clipPath><use xlink:href="#F" clip-path="url(#b)" fill="#051d2b"/><path d="M210.8 272.6h-64.7c-9.4 0-17.1-7.7-17.1-17.1V74.8c0-9.4 7.7-17.1 17.1-17.1h64.7c9.4 0 17.1 7.7 17.1 17.1v180.7c0 9.5-7.7 17.1-17.1 17.1z" class="AB"/><defs><path id="c" d="M210.8 272.6h-64.7c-9.4 0-17.1-7.7-17.1-17.1V74.8c0-9.4 7.7-17.1 17.1-17.1h64.7c9.4 0 17.1 7.7 17.1 17.1v180.7c0 9.5-7.7 17.1-17.1 17.1z"/></defs><clipPath id="d"><use xlink:href="#c"/></clipPath><linearGradient id="e" gradientUnits="userSpaceOnUse" x1="191.046" y1="134.837" x2="133.047" y2="217.283"><stop offset="0" stop-color="#fff"/><stop offset=".361" stop-color="#e6effc"/><stop offset=".997" stop-color="#b9d1f6"/></linearGradient><path d="M120.9 42.2s9.2 85.8 55.7 89.2 14.7 106.6 50.9 128.7S109 281.2 109 281.2l11.9-239z" opacity=".25" clip-path="url(#d)" fill="url(#e)"/><defs><path id="f" d="M210.8 272.6h-64.7c-9.4 0-17.1-7.7-17.1-17.1V74.8c0-9.4 7.7-17.1 17.1-17.1h64.7c9.4 0 17.1 7.7 17.1 17.1v180.7c0 9.5-7.7 17.1-17.1 17.1z"/></defs><clipPath id="g"><use xlink:href="#f"/></clipPath><g clip-path="url(#g)"><path d="M175.2 77.8h-34.3c-1.6 0-2.8-1.3-2.8-2.8v-3.9c0-1.6 1.3-2.8 2.8-2.8h34.3c1.6 0 2.8 1.3 2.8 2.8V75c0 1.6-1.3 2.8-2.8 2.8z" class="AN"/><g stroke="#435067" stroke-width=".534" class="AB AC AD AE"><path d="M211.9 70.3h5.8m-5.8 1.8h5.8m-5.8 1.8h5.8"/></g><path d="M173.9 189.5h-32.4a6.02 6.02 0 0 1-6-6v-36.9a6.02 6.02 0 0 1 6-6h32.4a6.02 6.02 0 0 1 6 6v36.9a6.02 6.02 0 0 1-6 6z" class="AF"/><path d="M215.4 189.5h-22.6c-3 0-5.4-2.4-5.4-5.4V146c0-3 2.4-5.4 5.4-5.4h22.6c3 0 5.4 2.4 5.4 5.4v38.1c0 2.9-2.4 5.4-5.4 5.4z" class="AJ"/><defs><path id="h" d="M173.9 189.5h-32.4a6.02 6.02 0 0 1-6-6v-36.9a6.02 6.02 0 0 1 6-6h32.4a6.02 6.02 0 0 1 6 6v36.9a6.02 6.02 0 0 1-6 6z"/></defs><clipPath id="i"><use xlink:href="#h"/></clipPath><path d="M127.7 129.4s2.4 19.4 22.3 25.3c23.7 7 10.1 16.3 27 27.1 34.9 22.4-55.1 9.8-55.1 9.8l5.8-62.2z" clip-path="url(#i)" class="AH"/><path d="M220.8 110.9v20.2c0 2.4-2 4.4-4.4 4.4h-76.5c-2.4 0-4.4-2-4.4-4.4v-5.7c0-2.4 2-4.4 4.4-4.4h28.5c2.4 0 4.4-2 4.4-4.4v-5.7c0-2.4 2-4.4 4.4-4.4h39.3c2.4 0 4.3 2 4.3 4.4z" class="AB"/><defs><path id="j" d="M220.8 110.9v20.2c0 2.4-2 4.4-4.4 4.4h-76.5c-2.4 0-4.4-2-4.4-4.4v-5.7c0-2.4 2-4.4 4.4-4.4h28.5c2.4 0 4.4-2 4.4-4.4v-5.7c0-2.4 2-4.4 4.4-4.4h39.3c2.4 0 4.3 2 4.3 4.4z"/></defs><clipPath id="k"><use xlink:href="#j"/></clipPath><linearGradient id="l" gradientUnits="userSpaceOnUse" x1="224.421" y1="103.606" x2="152.245" y2="145.034"><stop offset="0" stop-color="#fff"/><stop offset=".997" stop-color="#b9d1f6"/></linearGradient><use xlink:href="#G" clip-path="url(#k)" fill="url(#l)" class="AI"/><linearGradient id="m" gradientUnits="userSpaceOnUse" x1="179.022" y1="120.556" x2="214.404" y2="120.556"><stop offset="0" stop-color="#fff"/><stop offset=".997" stop-color="#b9d1f6"/></linearGradient><use xlink:href="#H" fill="url(#m)" class="AI"/><defs><path id="n" d="M205.9 129h-18.5c-4.7 0-8.5-3.8-8.5-8.5h0c0-4.7 3.8-8.5 8.5-8.5h18.5c4.7 0 8.5 3.8 8.5 8.5h0c0 4.7-3.8 8.5-8.5 8.5z"/></defs><clipPath id="o"><use xlink:href="#n"/></clipPath><use xlink:href="#G" clip-path="url(#o)" class="AJ"/><g class="AC AD AE AG AK AL"><path d="M143.8 146.9h27.8m-27.8 4.6h23m-23 9.3h10.6m-10.6-4.6h27.8"/></g><defs><path id="p" d="M215.4 189.5h-22.6c-3 0-5.4-2.4-5.4-5.4V146c0-3 2.4-5.4 5.4-5.4h22.6c3 0 5.4 2.4 5.4 5.4v38.1c0 2.9-2.4 5.4-5.4 5.4z"/></defs><clipPath id="q"><use xlink:href="#p"/></clipPath><use xlink:href="#G" clip-path="url(#q)" class="AR"/><g class="AC AD AE AG AK AL"><path d="M190.3 147.3H218m-27.7 4.6h20.1m-20.1 9.3h6.9m-6.9-4.6H218m-27.7 10.2H218m-27.7 4.7h20.1m-20.1 9.3h6.9m-6.9-4.7H218m-74.2-7h27.8m-27.8 4.7h27.8m-27.8 9.3H168m-24.2-4.6h27.8"/></g><use xlink:href="#I" class="AB"/><defs><path id="r" d="M215.3 101.5h-36.9a5.59 5.59 0 0 1-5.6-5.6v-6.7a5.59 5.59 0 0 1 5.6-5.6h36.9a5.59 5.59 0 0 1 5.6 5.6v6.7c-.1 3.1-2.6 5.6-5.6 5.6z"/></defs><clipPath id="s"><use xlink:href="#r"/></clipPath><linearGradient id="t" gradientUnits="userSpaceOnUse" x1="150.776" y1="97.207" x2="224.198" y2="97.207"><stop offset="0" stop-color="#fff"/><stop offset=".997" stop-color="#b9d1f6"/></linearGradient><path d="M150.8 73.6s10.6 16.4 31.1 13.1c24.4-3.9 16.7 7.6 36.1 12.7 28.7 7.6-50.8 21.5-50.8 21.5l-16.4-47.3z" clip-path="url(#s)" fill="url(#t)" class="AI"/><g class="AC AD AE AG AK AL"><path d="M184.4 87.8h30.5M178.7 91h36.2m-36.2 3.1h36.2m-36.2 3.2h18.5"/></g><path d="M160.9 114.7h-19.7c-3.1 0-5.7-2.5-5.7-5.7V89.3c0-3.1 2.5-5.7 5.7-5.7h19.7c3.1 0 5.7 2.5 5.7 5.7V109c0 3.2-2.6 5.7-5.7 5.7z" class="AJ"/><defs><path id="u" d="M160.9 114.7h-19.7c-3.1 0-5.7-2.5-5.7-5.7V89.3c0-3.1 2.5-5.7 5.7-5.7h19.7c3.1 0 5.7 2.5 5.7 5.7V109c0 3.2-2.6 5.7-5.7 5.7z"/></defs><clipPath id="v"><use xlink:href="#u"/></clipPath><use xlink:href="#J" clip-path="url(#v)" class="AR"/><defs><path id="w" d="M160.9 114.7h-19.7c-3.1 0-5.7-2.5-5.7-5.7V89.3c0-3.1 2.5-5.7 5.7-5.7h19.7c3.1 0 5.7 2.5 5.7 5.7V109c0 3.2-2.6 5.7-5.7 5.7z"/></defs><clipPath id="x"><use xlink:href="#w"/></clipPath><g clip-path="url(#x)"><g class="AB"><path d="M134.5 107.8l9.3-10.5 8.6 6.1 9.6-10.8 6.3 4.7v20.2H132z"/><circle cx="150.2" cy="92.6" r="3.9"/></g><defs><path id="y" d="M134.5 107.8l9.3-10.5 8.6 6.1 9.6-10.8 6.3 4.7v20.2H132z"/></defs><clipPath id="z"><use xlink:href="#y"/></clipPath><linearGradient id="AA" gradientUnits="userSpaceOnUse" x1="100.746" y1="111.114" x2="192.61" y2="111.114"><stop offset="0" stop-color="#fff"/><stop offset=".997" stop-color="#b9d1f6"/></linearGradient><use xlink:href="#J" clip-path="url(#z)" fill="url(#AA)" class="AI"/></g><path d="M173.9 302.5h-32.4a6.02 6.02 0 0 1-6-6v-36.9a6.02 6.02 0 0 1 6-6h32.4a6.02 6.02 0 0 1 6 6v36.9c0 3.4-2.7 6-6 6z" class="AF"/><path d="M215.4 302.5h-22.6c-3 0-5.4-2.4-5.4-5.4V259c0-3 2.4-5.4 5.4-5.4h22.6c3 0 5.4 2.4 5.4 5.4v38.1c0 3-2.4 5.4-5.4 5.4z" class="AJ"/><defs><path id="AB" d="M173.9 302.5h-32.4a6.02 6.02 0 0 1-6-6v-36.9a6.02 6.02 0 0 1 6-6h32.4a6.02 6.02 0 0 1 6 6v36.9c0 3.4-2.7 6-6 6z"/></defs><clipPath id="AC"><use xlink:href="#AB"/></clipPath><path d="M127.7 242.5s2.4 19.4 22.3 25.3c23.7 7 10.1 16.3 27 27.1 34.9 22.4-55.1 9.8-55.1 9.8l5.8-62.2z" clip-path="url(#AC)" class="AH"/><path d="M220.8 224v20.2c0 2.4-2 4.4-4.4 4.4h-76.5c-2.4 0-4.4-2-4.4-4.4v-5.7c0-2.4 2-4.4 4.4-4.4h28.5c2.4 0 4.4-2 4.4-4.4V224c0-2.4 2-4.4 4.4-4.4h39.3c2.4 0 4.3 2 4.3 4.4z" class="AB"/><defs><path id="AD" d="M220.8 224v20.2c0 2.4-2 4.4-4.4 4.4h-76.5c-2.4 0-4.4-2-4.4-4.4v-5.7c0-2.4 2-4.4 4.4-4.4h28.5c2.4 0 4.4-2 4.4-4.4V224c0-2.4 2-4.4 4.4-4.4h39.3c2.4 0 4.3 2 4.3 4.4z"/></defs><clipPath id="AE"><use xlink:href="#AD"/></clipPath><linearGradient id="AF" gradientUnits="userSpaceOnUse" x1="224.421" y1="216.697" x2="152.245" y2="258.125"><stop offset="0" stop-color="#fff"/><stop offset=".997" stop-color="#b9d1f6"/></linearGradient><use xlink:href="#K" clip-path="url(#AE)" fill="url(#AF)" class="AI"/><path d="M205.9 242.1h-18.5c-4.7 0-8.5-3.8-8.5-8.5h0c0-4.7 3.8-8.5 8.5-8.5h18.5c4.7 0 8.5 3.8 8.5 8.5h0c0 4.7-3.8 8.5-8.5 8.5z" class="AF"/><defs><path id="AG" d="M205.9 242.1h-18.5c-4.7 0-8.5-3.8-8.5-8.5h0c0-4.7 3.8-8.5 8.5-8.5h18.5c4.7 0 8.5 3.8 8.5 8.5h0c0 4.7-3.8 8.5-8.5 8.5z"/></defs><clipPath id="AH"><use xlink:href="#AG"/></clipPath><use xlink:href="#K" clip-path="url(#AH)" class="AH"/><g class="AC AD AE AG AK AL"><path d="M143.8 260h27.8m-27.8 4.6h23m-23 9.3h10.6m-10.6-4.6h27.8"/></g><defs><path id="AI" d="M215.4 302.5h-22.6c-3 0-5.4-2.4-5.4-5.4V259c0-3 2.4-5.4 5.4-5.4h22.6c3 0 5.4 2.4 5.4 5.4v38.1c0 3-2.4 5.4-5.4 5.4z"/></defs><clipPath id="AJ"><use xlink:href="#AI"/></clipPath><use xlink:href="#K" clip-path="url(#AJ)" class="AR"/><g class="AC AD AE AG AK AL"><path d="M190.3 260.3H218m-27.7 4.7h20.1m-20.1 9.3h6.9m-6.9-4.6H218m-27.7 10.2H218m-27.7 4.7h20.1m-20.1 9.3h6.9m-6.9-4.7H218m-74.2-7h27.8m-27.8 4.7h27.8m-27.8 9.3H168m-24.2-4.6h27.8"/></g><path d="M215.3 214.6h-36.9a5.59 5.59 0 0 1-5.6-5.6v-6.7a5.59 5.59 0 0 1 5.6-5.6h36.9a5.59 5.59 0 0 1 5.6 5.6v6.7c-.1 3.1-2.6 5.6-5.6 5.6z" class="AB"/><defs><path id="AK" d="M215.3 214.6h-36.9a5.59 5.59 0 0 1-5.6-5.6v-6.7a5.59 5.59 0 0 1 5.6-5.6h36.9a5.59 5.59 0 0 1 5.6 5.6v6.7c-.1 3.1-2.6 5.6-5.6 5.6z"/></defs><clipPath id="AL"><use xlink:href="#AK"/></clipPath><linearGradient id="AM" gradientUnits="userSpaceOnUse" x1="150.776" y1="210.297" x2="224.198" y2="210.297"><stop offset="0" stop-color="#fff"/><stop offset=".997" stop-color="#b9d1f6"/></linearGradient><path d="M150.8 186.7s10.6 16.4 31.1 13.1c24.4-3.9 16.7 7.6 36.1 12.7 28.7 7.6-50.8 21.5-50.8 21.5l-16.4-47.3z" clip-path="url(#AL)" fill="url(#AM)" class="AI"/><g class="AC AD AE AG AK AL"><path d="M184.4 200.9h30.5m-36.2 3.2h36.2m-36.2 3.1h36.2m-36.2 3.2h18.5"/></g><path d="M160.9 227.8h-19.7c-3.1 0-5.7-2.5-5.7-5.7v-19.7c0-3.1 2.5-5.7 5.7-5.7h19.7c3.1 0 5.7 2.5 5.7 5.7v19.7c0 3.2-2.6 5.7-5.7 5.7z" class="AN"/><defs><path id="AN" d="M160.9 227.8h-19.7c-3.1 0-5.7-2.5-5.7-5.7v-19.7c0-3.1 2.5-5.7 5.7-5.7h19.7c3.1 0 5.7 2.5 5.7 5.7v19.7c0 3.2-2.6 5.7-5.7 5.7z"/></defs><clipPath id="AO"><use xlink:href="#AN"/></clipPath><use xlink:href="#L" clip-path="url(#AO)" fill="#b1000e"/><defs><path id="AP" d="M160.9 227.8h-19.7c-3.1 0-5.7-2.5-5.7-5.7v-19.7c0-3.1 2.5-5.7 5.7-5.7h19.7c3.1 0 5.7 2.5 5.7 5.7v19.7c0 3.2-2.6 5.7-5.7 5.7z"/></defs><clipPath id="AQ"><use xlink:href="#AP"/></clipPath><g clip-path="url(#AQ)"><g class="AB"><path d="M134.5 220.9l9.3-10.5 8.6 6.1 9.6-10.8 6.3 4.7v20.1H132z"/><circle cx="150.2" cy="205.7" r="3.9"/></g><defs><path id="AR" d="M134.5 220.9l9.3-10.5 8.6 6.1 9.6-10.8 6.3 4.7v20.1H132z"/></defs><clipPath id="AS"><use xlink:href="#AR"/></clipPath><linearGradient id="AT" gradientUnits="userSpaceOnUse" x1="100.746" y1="224.205" x2="192.61" y2="224.205"><stop offset="0" stop-color="#fff"/><stop offset=".997" stop-color="#b9d1f6"/></linearGradient><use xlink:href="#L" clip-path="url(#AS)" fill="url(#AT)" class="AI"/></g></g><defs><path id="AU" d="M210.8 272.6h-64.7c-9.4 0-17.1-7.7-17.1-17.1V74.8c0-9.4 7.7-17.1 17.1-17.1h64.7c9.4 0 17.1 7.7 17.1 17.1v180.7c0 9.5-7.7 17.1-17.1 17.1z"/></defs><clipPath id="AV"><use xlink:href="#AU"/></clipPath><linearGradient id="AW" gradientUnits="userSpaceOnUse" x1="192.136" y1="136.966" x2="132.314" y2="222.002"><stop offset="0" stop-color="#fff"/><stop offset=".361" stop-color="#e6effc"/><stop offset=".997" stop-color="#b9d1f6"/></linearGradient><use xlink:href="#F" opacity=".25" clip-path="url(#AV)" fill="url(#AW)"/><path d="M123.6 118h1.1v16.1h-1.1zm-.1-20.5h2.2v16.4h-2.2zm-.2-16.3h1.9v9.1h-1.9zm108.8 21.7h2.5v26.7h-2.5zM193.9 65h-31.1a12.08 12.08 0 0 1-12.1-12.1H206A12.08 12.08 0 0 1 193.9 65z" class="AM"/><g class="AF"><path d="M183.5 60.6h-10.8c-.5 0-.9-.4-.9-.9h0c0-.5.4-.9.9-.9h10.8c.5 0 .9.4.9.9h0c0 .5-.4.9-.9.9z"/><circle cx="190.3" cy="59.3" r="1.1"/><path d="M199.6 60.2c0 1.3-1.1 2.4-2.4 2.4s-2.4-1.1-2.4-2.4 1.1-2.4 2.4-2.4 2.4 1.1 2.4 2.4zm-30.8.2c0 .7-.6 1.2-1.2 1.2-.7 0-1.2-.6-1.2-1.2 0-.7.6-1.2 1.2-1.2.7-.1 1.2.5 1.2 1.2zm-6.3.1a2.3 2.3 0 1 1-4.6 0 2.3 2.3 0 1 1 4.6 0z"/></g><linearGradient id="AX" gradientUnits="userSpaceOnUse" x1="232.261" y1="72.999" x2="234.069" y2="72.999"><stop offset="0" stop-color="#fff"/><stop offset=".01" stop-color="#fdfdff"/><stop offset=".132" stop-color="#e4edfc"/><stop offset=".268" stop-color="#d1e1f9"/><stop offset=".426" stop-color="#c3d8f7"/><stop offset=".626" stop-color="#bbd3f6"/><stop offset=".997" stop-color="#b9d1f6"/></linearGradient><path d="M234.1 72.2h-1.8v1.5h1.7c0 .1 0-1.6.1-1.5z" fill="url(#AX)"/><linearGradient id="AY" gradientUnits="userSpaceOnUse" x1="124.051" y1="73.033" x2="125.858" y2="73.033"><stop offset="0" stop-color="#fff"/><stop offset=".01" stop-color="#fdfdff"/><stop offset=".132" stop-color="#e4edfc"/><stop offset=".268" stop-color="#d1e1f9"/><stop offset=".426" stop-color="#c3d8f7"/><stop offset=".626" stop-color="#bbd3f6"/><stop offset=".997" stop-color="#b9d1f6"/></linearGradient><path d="M124.2 72.3h1.7v1.4h-1.8c0 .1.1-1.7.1-1.4z" fill="url(#AY)"/><path d="M124.4 254h1.8v2h-1.8s-.2-2 0-2zm107.5-.3v2.2h1.9v-2.3s-1.9-.2-1.9.1z" class="AB"/><path d="M196.4 266.9h-33.7a.47.47 0 0 1-.5-.5h0a.47.47 0 0 1 .5-.5h33.7a.47.47 0 0 1 .5.5h0a.47.47 0 0 1-.5.5z" class="AM"/><path d="M137.4 168.4h-38c-2.1 0-3.7-1.7-3.7-3.7v-39.5c0-2.1 1.7-3.7 3.7-3.7h38c2.1 0 3.7 1.7 3.7 3.7v39.5a3.76 3.76 0 0 1-3.7 3.7z" class="AN"/><path d="M131.8 136.6h0c.9-.7 1-1.9.3-2.8-.8-.9-1.6-1.8-2.6-2.6-.9-.7-2.1-.6-2.8.3h0c-.6.7-1.6 1-2.4.6-.3-.2-.7-.3-1-.4-.9-.3-1.4-1.2-1.3-2.1h0c.2-1.1-.6-2.1-1.7-2.2-.6-.1-1.2-.1-1.8-.1s-1.2 0-1.8.1c-1.1.1-1.9 1.1-1.7 2.2h0c.1.9-.4 1.8-1.3 2.1-.4.1-.7.3-1 .4-.8.4-1.8.2-2.4-.6h0c-.7-.9-1.9-1-2.8-.3-.9.8-1.8 1.6-2.6 2.6-.7.9-.6 2.1.3 2.8h0c.7.6 1 1.6.6 2.4-.2.3-.3.7-.4 1-.3.9-1.2 1.4-2.1 1.3h0c-1.1-.2-2.1.6-2.2 1.7-.1.6-.1 1.2-.1 1.8s0 1.2.1 1.8c.1 1.1 1.1 1.9 2.2 1.7h0c.9-.1 1.8.4 2.1 1.3.1.4.3.7.4 1 .4.8.2 1.8-.6 2.4h0c-.9.7-1 1.9-.3 2.8.8.9 1.6 1.8 2.6 2.6.9.7 2.1.6 2.8-.3h0c.6-.7 1.6-1 2.4-.6.3.2.7.3 1 .4.9.3 1.4 1.2 1.3 2.1h0c-.2 1.1.6 2.1 1.7 2.2.6.1 1.2.1 1.8.1s1.2 0 1.8-.1c1.1-.1 1.9-1.1 1.7-2.2h0c-.1-.9.4-1.8 1.3-2.1.4-.1.7-.3 1-.4.8-.4 1.8-.2 2.4.6h0c.7.9 1.9 1 2.8.3.9-.8 1.8-1.6 2.6-2.6.7-.9.6-2.1-.3-2.8h0c-.7-.6-1-1.6-.6-2.4.2-.3.3-.7.4-1 .3-.9 1.2-1.4 2.1-1.3h0c1.1.2 2.1-.6 2.2-1.7.1-.6.1-1.2.1-1.8s0-1.2-.1-1.8c-.1-1.1-1.1-1.9-2.2-1.7h0c-.9.1-1.8-.4-2.1-1.3-.1-.4-.3-.7-.4-1-.4-.9-.2-1.9.6-2.4zm-12 16.8c-5.9 1-10.9-4.1-10-10a8.72 8.72 0 0 1 7.1-7.1c5.9-1 10.9 4.1 10 10a8.72 8.72 0 0 1-7.1 7.1z" class="AB"/><path d="M120.4 156.6c-8.1 1.3-15-5.6-13.7-13.7.8-4.9 4.8-8.9 9.7-9.7 8.1-1.3 15 5.6 13.7 13.7-.9 4.9-4.8 8.8-9.7 9.7z" class="AC AD AG AQ AS"/><path d="M119.2 149.8c-3.4.6-6.3-2.3-5.8-5.8.3-2.1 2-3.7 4.1-4.1 3.4-.6 6.3 2.3 5.8 5.8-.4 2.1-2 3.8-4.1 4.1z" class="AB"/><path d="M222.2 246.5c-3.2-17.7-1.9-32.6-.6-40.5.6-3.5 3.4-6.2 6.9-6.6h0c5.1-.5 9.5 3.7 9.2 8.8-.1 2.2-.4 4.9-1 7.9-2.3 12-6.4 69.4-6.4 69.4 0 .3 0 .6.1.8.3 1 .7 1.4 1 1.8.9 1.2.3 2-1.4 3.4-1.5 1.2-.7 3.2-2.2 3.4-2.1.3-3.5.2-3.7-.3-.3-.7.3-.8 2.1-1.7 1.3-.7 1.5-4.9 1.5-6.5 0-.4 0-.8-.1-1.2l-5.4-38.7z" class="AF"/><defs><path id="AZ" d="M222.2 246.5c-3.2-17.7-1.9-32.6-.6-40.5.6-3.5 3.4-6.2 6.9-6.6h0c5.1-.5 9.5 3.7 9.2 8.8-.1 2.2-.4 4.9-1 7.9-2.3 12-6.4 69.4-6.4 69.4 0 .3 0 .6.1.8.3 1 .7 1.4 1 1.8.9 1.2.3 2-1.4 3.4-1.5 1.2-.7 3.2-2.2 3.4-2.1.3-3.5.2-3.7-.3-.3-.7.3-.8 2.1-1.7 1.3-.7 1.5-4.9 1.5-6.5 0-.4 0-.8-.1-1.2l-5.4-38.7z"/></defs><clipPath id="Aa"><use xlink:href="#AZ"/></clipPath><path d="M246.8 173.9s.6 6.6-6.7 10.4c-2.8 1.5-6.5 6.3-6.8 9.5-.2 3.1.4 6.3 1.3 9.3.9 3.2.9 6.6 0 9.9-.7 2.5-2 4.7-2.9 7-.6 1.5-4.2 8.4-2.6 18.1 1.1 6.7-.3 17.5-1.9 29.3-1.5 10.9 7.3 28.3 4.5 39.3-1.2 4.5 29.3-30.2 28.7-25.6-.6 4.8-1.8 9.6-2.3 14.4-.5 5-.2 11.4 3.5 15.2 1.4 1.4 3.2 2.4 5.1 2.9 0 0-.5 3.4.1 3.6s9.9-1 9.9-1l5.6-13.2-7.8-57.7-8.3-13.4 6-50c.1-.2-4.3-7.8-4.3-7.8l-21.1-.2z" clip-path="url(#Aa)" class="AH"/><path d="M239.8 248.9c-3.3-9.8-9.1-41.1-8-49.9l7.9-.7c4-.2 7.6 2.4 8.8 6.2 1.7 5.7 3.4 15.3 1.8 29.4 0 0-1.2 7.6 0 12.5 1.1 4.5 7.3 32.2 8.4 37.2.2.7.5 1.4.6 1.7.5.9.9 1.1 1.3 1.5 1.1.9.8 1.8-.6 3.6-1.1 1.5.1 3.3-1.3 3.9-1.9.8-3.3 1-3.6.6-.4-.6.1-.8 1.6-2.1.6-.5.5-2.3.3-3.9-.2-1.8-.7-3.5-1.6-5.2-3-6.6-12.8-26.6-15.6-34.8z" class="AF"/><defs><path id="Ab" d="M239.8 248.9c-3.3-9.8-9.1-41.1-8-49.9l7.9-.7c4-.2 7.6 2.4 8.8 6.2 1.7 5.7 3.4 15.3 1.8 29.4 0 0-1.2 7.6 0 12.5 1.1 4.5 7.3 32.2 8.4 37.2.2.7.5 1.4.6 1.7.5.9.9 1.1 1.3 1.5 1.1.9.8 1.8-.6 3.6-1.1 1.5.1 3.3-1.3 3.9-1.9.8-3.3 1-3.6.6-.4-.6.1-.8 1.6-2.1.6-.5.5-2.3.3-3.9-.2-1.8-.7-3.5-1.6-5.2-3-6.6-12.8-26.6-15.6-34.8z"/></defs><clipPath id="Ac"><use xlink:href="#Ab"/></clipPath><use xlink:href="#M" clip-path="url(#Ac)" class="AH"/><path d="M245.1 145.9s7.7-3.1 10.5 1.9-1.4 18.3 8.9 20.1c10.2 1.8 11.3 12.1 10.5 16.6-2.3 12.9-21.1 25.9-34 12.2-13-13.7 3.1-22.9 4.3-29.8 1.3-7-6.8-16.2-.2-21z" class="AM"/><path d="M239.6 169.7c.1-5.3-10.6-10.9.5-21.7.3-.3.8-.4 1.2-.1.9.8 3.8 1.1 5.3 2.4 2.8 2.5 7.1 9.2 5.7 12.7-2.9 7.3 2 13.5 2.4 21.8.3 8.5-13.5 16.9-20.2 14.6-2.4-.8-3.8-2.6-4.5-4.6-.5-1.6-.4-3.4.4-4.9 2.6-4.8 9-2.5 9.2-20.2z" fill="#051d2b"/><path d="M223.3 254.6c9.1 2.4 18.8 2.4 29 0l-1.9-8.1c-1.2-4.9 0-12.5 0-12.5 1.5-14-.1-23.7-1.8-29.4-1.2-3.8-4.8-6.4-8.8-6.2l-7.9.7v.1l-3.3.3c-3.5.4-6.4 3.1-6.9 6.6-1.2 7.9-2.6 22.8.6 40.5l1 8z" class="AN"/><defs><path id="Ad" d="M223.3 254.6c9.1 2.4 18.8 2.4 29 0l-1.9-8.1c-1.2-4.9 0-12.5 0-12.5 1.5-14-.1-23.7-1.8-29.4-1.2-3.8-4.8-6.4-8.8-6.2l-7.9.7v.1l-3.3.3c-3.5.4-6.4 3.1-6.9 6.6-1.2 7.9-2.6 22.8.6 40.5l1 8z"/></defs><clipPath id="Ae"><use xlink:href="#Ad"/></clipPath><use xlink:href="#M" clip-path="url(#Ae)" fill="#b1000e"/><g class="AF"><path d="M212 117.8c.2.1.5.3.7.9v.4c0 .3.1.6.3.8s.3.4.4.7c.1.4.2 1 .1 1.4s-.1.7 0 1.1c0 .2 0 .5-.1.7-.3.5-.8.7-1.3.4-.3-.2-.5-.5-.5-.9 0-.2 0-.4-.2-.5v-.1c-.2-.3-.2-.5-.1-.7 0-.3 0-.5-.2-.7s-.4-.4-.5-.7c-.1-.2-.1-.4 0-.5.1-.3 0-.5-.2-.7s-.3-.4-.3-.7c0-.9 1.3-1.2 1.9-.9z"/><path d="M216.7 121c-.3-.5-.6-1-1-1.4l-1.3-1.5c-1-.9-1.5-1.7-2.6-1.8-1.8-.2-5.4-.3-5.5.7-.1.9 3.4 1.5 4.7 1.7.5.1.8.4.9.8 0 0-.9 5.6 1.9 5.8l.3 2 4.2-.5-.8-3.6c.1-.8-.4-1.5-.8-2.2z"/><path d="M216.6 148.5c-1.2-6.1-2.4-22.1-2.4-22.1.6-.9 3.2-1.9 4-.9l5.1 21.9c5.5 6.9 9.9 13.2 12.1 16.2.8 1.2-5.7 7.5-7 5.9-4.6-5.4-10.6-15.2-11.8-21z"/></g><defs><path id="Af" d="M216.6 148.5c-1.2-6.1-2.4-22.1-2.4-22.1.6-.9 3.2-1.9 4-.9l5.1 21.9c5.5 6.9 9.9 13.2 12.1 16.2.8 1.2-5.7 7.5-7 5.9-4.6-5.4-10.6-15.2-11.8-21z"/></defs><clipPath id="Ag"><use xlink:href="#Af"/></clipPath><path d="M220.6 146.2c-1.2-6.1-2.4-22.1-2.4-22.1.6-.9 3.2-1.9 4-.9l5.1 21.9c5.5 6.9 9.9 13.2 12.1 16.2.8 1.2 2.1 1.9 3.5 2 2.7.2 6 .6 8.8 1.3 13.5 3.5 7.9 8.5 7.9 8.5-1.7 1.6-3 3.6-4 5.7l-5.2 11.2c-.5 1.8 1.1 6.9 1.6 8.7l1.2 3.7c.2.5-.1 1.1-.6 1.3-6.1 2.1-18.3 2.4-26.1-.1-.9-.3-1.3-1.3-.9-2.1l5.8-15.8c1.5-3.3 1.3-4.1.2-6.1-.6-1.1-.8-2.4-.4-3.6.2-.7.8-1.9 1.5-3.1 1.1-1.8 1-4.1-.4-5.7-4.6-5.5-10.6-15.3-11.7-21z" clip-path="url(#Ag)" class="AH"/><path d="M227.4 188.1c1.5-3.3 1.3-4.1.2-6.1-.6-1.1-.8-2.4-.4-3.6.2-.7.8-1.9 1.6-3.1 1.1-1.8 1-4.1-.4-5.7-.9-1.1-1.9-2.4-2.8-3.8-1.5-2.1-1-5 1.1-6.4 0 0 .1 0 .1-.1 2.1-1.4 4.9-1 6.4 1.1l2.3 3.3c.8 1.2 2.1 1.9 3.5 2 2.7.2 6.1.6 8.8 1.3 13.5 3.5 7.9 8.5 7.9 8.5-1.7 1.6-3 3.6-4 5.7l-5.2 11.2c-.5 1.8 1.1 6.9 1.6 8.7l1.2 3.7c.2.5-.1 1.1-.6 1.3-6.1 2.1-18.3 2.4-26.1-.1-.9-.3-1.3-1.3-.9-2.1l5.7-15.8z" class="AO"/><defs><path id="Ah" d="M227.4 188.1c1.5-3.3 1.3-4.1.2-6.1-.6-1.1-.8-2.4-.4-3.6.2-.7.8-1.9 1.6-3.1 1.1-1.8 1-4.1-.4-5.7-.9-1.1-1.9-2.4-2.8-3.8-1.5-2.1-1-5 1.1-6.4 0 0 .1 0 .1-.1 2.1-1.4 4.9-1 6.4 1.1l2.3 3.3c.8 1.2 2.1 1.9 3.5 2 2.7.2 6.1.6 8.8 1.3 13.5 3.5 7.9 8.5 7.9 8.5-1.7 1.6-3 3.6-4 5.7l-5.2 11.2c-.5 1.8 1.1 6.9 1.6 8.7l1.2 3.7c.2.5-.1 1.1-.6 1.3-6.1 2.1-18.3 2.4-26.1-.1-.9-.3-1.3-1.3-.9-2.1l5.7-15.8z"/></defs><clipPath id="Ai"><use xlink:href="#Ah"/></clipPath><use xlink:href="#M" clip-path="url(#Ai)" class="AP"/><g class="AH"><path d="M247.8 226.8c.7-1 1.2-2 1.5-2.4.1-.2.6-.5.7-.6.4-.3 1-.7 1.2-1.1l.7-1.8c.3-.9 1-1.4 1.9-1.1h0c1 .4 1.1 1.3.6 2.3l-.5 1.3c-.4.7-.4 1.6-.4 2.4-.1 1.7-1.2 3.3-2.1 4.5-.6.8-1.9.9-3.7.9-.9 0-2.2-.2-1.4-.9.7-.6 3.3-.9 3.6-3.5 0-.1 0-.5-.1-.5-.4-.2-.9.8-1.3 1.2-.6.6-1.1.7-1.4.5s.3-.5.7-1.2z"/><path d="M255.4 170.4c-1.3-1.3-1.5 2.8-4.4 3.4-2.7.6.2 15.1 5.7 24.1.6 1 .8 2.1.5 3.2l-5.7 21c.7 1.4 1.2 1.1 2.5 1.3l10.5-21.3c.9-2 1.1-4.3.6-6.5-1.7-6.7-5.8-21.1-9.7-25.2z"/></g><defs><path id="Aj" d="M255.4 170.4c-1.3-1.3-1.5 2.8-4.4 3.4-2.7.6.2 15.1 5.7 24.1.6 1 .8 2.1.5 3.2l-5.7 21c.7 1.4 1.2 1.1 2.5 1.3l10.5-21.3c.9-2 1.1-4.3.6-6.5-1.7-6.7-5.8-21.1-9.7-25.2z"/></defs><clipPath id="Ak"><use xlink:href="#Aj"/></clipPath><path d="M251.8 170.9c-1.3-1.3-1.5 2.8-4.4 3.4-2.7.6.2 15.1 5.7 24.1.6 1 .8 2.1.5 3.2l-5.7 21c.7 1.4 1.2 1.1 2.5 1.3l10.5-21.3c.9-2 1.1-4.3.6-6.5-1.7-6.7-5.8-21.1-9.7-25.2z" clip-path="url(#Ak)" class="AF"/><path d="M258.3 188.7c-2.7 1.4-6 .2-7.1-2.7l-.6-1.5c-.7-1.2-2.4 5.3-3.7 5.6-1.4-5 2.9-16.5 3.5-17.5 1.2-2.2 3.7-3.5 5-2.1 2 2.1 4.1 6.9 5.8 12 .8 2.3-.2 4.9-2.4 6.1-.2-.1-.4 0-.5.1z" class="AP"/><path d="M248.9 147.1c4 1.1 4.7 4.4 3.3 9.7-.5 2-2 3.7-3 4.8-.8.8-1.2 1.9-1.2 3l.1 3.2c-.2 2.9-1.9 4.1-4 4.1-1 0-2.1-.5-2.8-1.3-.8-.9-.5-2.3 0-3.5l.5-.8c.6-1.1.3-2.5-.8-3.1-.9-.4-1.7-1.1-2.3-1.8-.5-.6-.9-5.3 1.3-10.2 2.1-4.9 4.8-5.3 8.9-4.1z" class="AF"/><path d="M254.2 151c-3.3-6.3-10.2-8.4-13.8-6.2-1.9 1.2-4.6 6.1-.3 6.3 1.1 0 2-.3 2.9-.9.3-.2.6-.2 1-.2l2.8.9c2.3.8 3.5 3.2 2.7 5.5l-.3.8c-.1.4.3.8.7.6l.2-.3a3.18 3.18 0 0 1 2-1.6c1.8-.4 4-1.1 2.1-4.9z" class="AM"/><path d="M250.1 157.1c-.3 1.2-.7 2.8.3 3.1 1.1.3 2.8-1.6 3.1-2.9.3-1.2-.3-1.7-1.3-2-1.1-.3-1.8.6-2.1 1.8z" class="AF"/></svg>